<svg xmlns = "http://www.w3.org/2000/svg" width = "1000" height = "1000">
<g>
<polygon points = "889.046, 74.378 887.441, 100.750 880.527, 125.701 871.170, 133.958 856.653, 136.949 827.337, 120.411 835.020, 78.055 873.795, 62.243 "
fill = "none" stroke = "black"/>
</g>
<g>
<polygon points = "942.944, 39.857 938.151, 42.828 930.832, 45.968 858.206, 9.720 860.511, 0.000 942.744, 0.000 "
fill = "none" stroke = "black"/>
</g>
<g>
<polygon points = "462.975, 402.756 451.997, 412.081 411.983, 410.245 407.725, 403.571 422.642, 377.572 438.587, 374.031 458.467, 390.339 "
fill = "none" stroke = "black"/>
</g>
<g>
<polygon points = "67.549, 887.709 61.564, 868.676 62.334, 865.792 82.276, 850.193 85.830, 850.483 99.696, 859.102 102.019, 891.854 67.906, 888.601 "
fill = "none" stroke = "black"/>
</g>
<g>
<polygon points = "971.402, 334.470 954.902, 359.466 925.847, 346.561 923.443, 336.049 939.822, 302.720 941.999, 300.405 "
fill = "none" stroke = "black"/>
</g>
<g>
<polygon points = "285.695, 480.451 252.346, 498.609 256.422, 451.047 294.003, 442.777 "
fill = "none" stroke = "black"/>
</g>
<g>
<polygon points = "569.468, 454.426 568.701, 397.991 629.269, 406.505 615.753, 450.663 573.227, 460.378 570.911, 458.226 "
fill = "none" stroke = "black"/>
</g>
<g>
<polygon points = "912.033, 896.518 887.652, 885.710 884.571, 882.112 948.870, 827.302 982.449, 829.219 "
fill = "none" stroke = "black"/>
</g>
<g>
<polygon points = "165.432, 64.623 186.427, 87.579 184.146, 126.732 181.798, 128.497 118.642, 107.716 148.414, 73.368 "
fill = "none" stroke = "black"/>
</g>
<g>
<polygon points = "458.559, 48.563 461.794, 60.000 451.240, 94.570 437.451, 98.542 404.699, 79.945 405.548, 76.637 415.421, 61.332 "
fill = "none" stroke = "black"/>
</g>
<g>
<polygon points = "316.732, 530.658 352.818, 528.151 354.637, 531.180 330.346, 577.883 291.419, 590.718 "
fill = "none" stroke = "black"/>
</g>
<g>
<polygon points = "773.590, 80.918 773.595, 80.941 774.445, 104.367 711.552, 101.432 710.546, 53.585 "
fill = "none" stroke = "black"/>
</g>
<g>
<polygon points = "818.436, 174.737 811.355, 188.554 760.870, 207.247 750.617, 201.010 773.191, 167.690 "
fill = "none" stroke = "black"/>
</g>
<g>
<polygon points = "764.440, 847.212 860.278, 863.351 860.293, 863.420 789.038, 897.272 750.042, 855.578 "
fill = "none" stroke = "black"/>
</g>
<g>
<polygon points = "98.645, 90.405 113.595, 64.202 148.414, 73.368 118.642, 107.716 104.718, 112.911 "
fill = "none" stroke = "black"/>
</g>
<g>
<polygon points = "629.512, 636.986 650.986, 638.326 636.168, 682.946 "
fill = "none" stroke = "black"/>
</g>
<g>
<polygon points = "790.345, 229.286 783.523, 258.949 751.797, 266.440 721.257, 205.839 750.617, 201.010 760.870, 207.247 "
fill = "none" stroke = "black"/>
</g>
<g>
<polygon points = "363.106, 310.720 403.338, 316.109 409.175, 323.443 397.892, 343.655 357.364, 349.870 "
fill = "none" stroke = "black"/>
</g>
<g>
<polygon points = "717.867, 323.075 748.055, 320.027 750.000, 320.187 751.337, 351.767 737.942, 349.975 716.747, 324.891 "
fill = "none" stroke = "black"/>
</g>
<g>
<polygon points = "893.657, 387.833 865.405, 378.207 861.253, 346.499 864.599, 342.538 901.041, 328.857 923.443, 336.049 925.847, 346.561 "
fill = "none" stroke = "black"/>
</g>
<g>
<polygon points = "895.020, 303.573 879.987, 290.836 879.343, 281.661 884.952, 259.027 945.669, 276.918 947.541, 282.569 941.999, 300.405 939.822, 302.720 "
fill = "none" stroke = "black"/>
</g>
<g>
<polygon points = "774.670, 104.830 702.698, 159.566 700.541, 110.260 711.552, 101.432 774.445, 104.367 "
fill = "none" stroke = "black"/>
</g>
<g>
<polygon points = "518.191, 47.938 526.853, 44.317 591.385, 93.731 570.457, 122.480 513.748, 66.972 "
fill = "none" stroke = "black"/>
</g>
<g>
<polygon points = "718.148, 317.490 700.607, 289.193 707.431, 268.094 734.097, 286.650 726.421, 304.369 "
fill = "none" stroke = "black"/>
</g>
<g>
<polygon points = "985.669, 667.899 958.002, 696.105 956.493, 695.178 953.897, 693.325 936.409, 670.660 942.549, 642.561 "
fill = "none" stroke = "black"/>
</g>
<g>
<polygon points = "512.830, 544.614 477.963, 529.042 507.315, 485.323 518.480, 485.253 527.705, 520.950 "
fill = "none" stroke = "black"/>
</g>
<g>
<polygon points = "407.715, 666.070 388.351, 646.619 386.503, 637.738 413.626, 615.887 420.219, 614.765 452.270, 655.067 "
fill = "none" stroke = "black"/>
</g>
<g>
<polygon points = "623.934, 738.009 641.827, 718.733 672.858, 737.592 672.815, 775.038 667.020, 785.627 639.303, 800.576 "
fill = "none" stroke = "black"/>
</g>
<g>
<polygon points = "751.016, 937.113 745.220, 959.870 682.836, 951.320 676.259, 946.175 700.097, 925.400 727.430, 922.470 "
fill = "none" stroke = "black"/>
</g>
<g>
<polygon points = "961.019, 373.462 954.902, 359.466 971.402, 334.470 1000.000, 329.943 1000.000, 393.155 "
fill = "none" stroke = "black"/>
</g>
<g>
<polygon points = "702.890, 493.496 702.790, 483.602 711.540, 473.024 753.168, 479.979 742.944, 535.301 728.916, 531.772 "
fill = "none" stroke = "black"/>
</g>
<g>
<polygon points = "244.510, 505.092 236.459, 498.494 222.293, 451.781 223.148, 448.344 256.422, 451.047 252.346, 498.609 "
fill = "none" stroke = "black"/>
</g>
<g>
<polygon points = "187.129, 664.332 218.783, 678.226 202.620, 688.865 198.614, 690.528 166.737, 688.711 166.373, 682.730 "
fill = "none" stroke = "black"/>
</g>
<g>
<polygon points = "505.890, 69.509 459.902, 97.107 451.240, 94.570 461.794, 60.000 "
fill = "none" stroke = "black"/>
</g>
<g>
<polygon points = "105.887, 42.334 121.723, 23.807 165.009, 57.451 165.432, 64.623 148.414, 73.368 113.595, 64.202 "
fill = "none" stroke = "black"/>
</g>
<g>
<polygon points = "116.493, 902.629 125.708, 925.014 117.269, 953.934 76.602, 933.042 70.700, 922.729 67.906, 888.601 102.019, 891.854 "
fill = "none" stroke = "black"/>
</g>
<g>
<polygon points = "950.399, 421.419 923.498, 404.817 961.019, 373.462 1000.000, 393.155 1000.000, 420.720 "
fill = "none" stroke = "black"/>
</g>
<g>
<polygon points = "61.564, 868.676 67.549, 887.709 21.540, 913.724 0.000, 911.711 0.000, 897.518 "
fill = "none" stroke = "black"/>
</g>
<g>
<polygon points = "815.718, 365.706 813.820, 354.170 831.411, 326.754 861.253, 346.499 865.405, 378.207 865.076, 378.427 860.784, 379.150 "
fill = "none" stroke = "black"/>
</g>
<g>
<polygon points = "441.787, 965.204 442.813, 959.414 455.014, 929.143 493.394, 937.635 521.544, 983.939 518.193, 1000.000 513.718, 1000.000 "
fill = "none" stroke = "black"/>
</g>
<g>
<polygon points = "521.544, 983.939 556.481, 945.819 627.835, 970.092 627.640, 1000.000 518.193, 1000.000 "
fill = "none" stroke = "black"/>
</g>
<g>
<polygon points = "817.766, 458.761 859.584, 459.320 859.935, 460.245 864.819, 498.497 842.469, 509.825 803.190, 502.322 813.340, 469.699 "
fill = "none" stroke = "black"/>
</g>
<g>
<polygon points = "351.862, 941.775 367.391, 929.908 371.515, 927.882 431.803, 978.792 417.768, 1000.000 393.305, 1000.000 "
fill = "none" stroke = "black"/>
</g>
<g>
<polygon points = "317.652, 750.037 338.800, 743.824 380.498, 786.547 340.097, 810.355 309.587, 784.715 309.957, 758.279 "
fill = "none" stroke = "black"/>
</g>
<g>
<polygon points = "306.570, 873.979 305.985, 873.690 273.535, 833.727 284.265, 805.142 306.078, 789.044 312.070, 869.826 "
fill = "none" stroke = "black"/>
</g>
<g>
<polygon points = "735.152, 647.135 777.293, 623.011 793.574, 635.186 792.313, 650.847 772.586, 677.931 "
fill = "none" stroke = "black"/>
</g>
<g>
<polygon points = "570.911, 458.226 573.227, 460.378 586.332, 505.320 527.705, 520.950 518.480, 485.253 "
fill = "none" stroke = "black"/>
</g>
<g>
<polygon points = "735.222, 412.225 702.074, 387.731 716.173, 379.117 745.828, 398.838 "
fill = "none" stroke = "black"/>
</g>
<g>
<polygon points = "121.447, 191.936 137.115, 207.300 99.633, 222.702 94.690, 223.349 98.300, 196.847 "
fill = "none" stroke = "black"/>
</g>
<g>
<polygon points = "231.304, 932.563 260.015, 917.702 298.047, 921.992 294.332, 928.464 223.445, 956.184 "
fill = "none" stroke = "black"/>
</g>
<g>
<polygon points = "192.093, 473.410 168.633, 480.376 160.527, 469.712 172.566, 427.717 207.811, 416.137 213.076, 420.497 223.148, 448.344 222.293, 451.781 "
fill = "none" stroke = "black"/>
</g>
<g>
<polygon points = "159.663, 653.831 119.615, 630.877 117.829, 626.332 125.587, 607.086 176.675, 637.180 167.659, 648.142 "
fill = "none" stroke = "black"/>
</g>
<g>
<polygon points = "294.781, 978.494 283.980, 955.778 294.332, 928.464 298.047, 921.992 308.773, 914.777 347.894, 941.532 340.664, 953.321 "
fill = "none" stroke = "black"/>
</g>
<g>
<polygon points = "757.911, 315.146 779.487, 321.024 785.995, 328.991 782.244, 344.362 769.825, 364.097 751.337, 351.767 750.000, 320.187 "
fill = "none" stroke = "black"/>
</g>
<g>
<polygon points = "249.330, 25.340 300.693, 42.539 291.380, 66.693 270.272, 78.974 254.171, 72.063 "
fill = "none" stroke = "black"/>
</g>
<g>
<polygon points = "636.041, 194.769 635.730, 147.862 700.004, 180.774 700.794, 184.504 "
fill = "none" stroke = "black"/>
</g>
<g>
<polygon points = "590.142, 876.364 598.212, 902.738 550.627, 915.537 544.289, 896.607 "
fill = "none" stroke = "black"/>
</g>
<g>
<polygon points = "953.672, 618.862 949.297, 555.864 953.509, 548.280 1000.000, 565.604 1000.000, 607.400 "
fill = "none" stroke = "black"/>
</g>
<g>
<polygon points = "627.835, 970.092 629.925, 966.230 659.655, 950.605 676.259, 946.175 682.836, 951.320 708.412, 973.169 687.327, 1000.000 627.640, 1000.000 "
fill = "none" stroke = "black"/>
</g>
<g>
<polygon points = "540.534, 340.232 536.117, 289.452 557.862, 249.177 565.671, 246.867 586.666, 269.012 582.272, 333.952 559.344, 355.140 556.824, 356.612 551.213, 352.886 "
fill = "none" stroke = "black"/>
</g>
<g>
<polygon points = "556.873, 25.167 603.470, 45.466 611.267, 71.281 610.332, 73.488 591.385, 93.731 526.853, 44.317 "
fill = "none" stroke = "black"/>
</g>
<g>
<polygon points = "953.509, 548.280 951.563, 543.902 955.334, 514.866 982.571, 480.316 1000.000, 473.912 1000.000, 565.604 "
fill = "none" stroke = "black"/>
</g>
<g>
<polygon points = "680.553, 101.874 661.264, 66.523 682.130, 48.263 703.666, 43.753 710.546, 53.585 711.552, 101.432 700.541, 110.260 "
fill = "none" stroke = "black"/>
</g>
<g>
<polygon points = "81.574, 633.544 33.319, 598.887 79.032, 566.690 130.790, 576.132 132.181, 579.044 125.587, 607.086 117.829, 626.332 "
fill = "none" stroke = "black"/>
</g>
<g>
<polygon points = "907.017, 652.345 864.049, 664.384 861.929, 663.887 865.999, 654.152 913.634, 623.272 923.037, 620.773 934.169, 629.332 "
fill = "none" stroke = "black"/>
</g>
<g>
<polygon points = "494.877, 366.051 551.213, 352.886 556.824, 356.612 556.693, 361.406 515.791, 396.601 475.691, 403.337 "
fill = "none" stroke = "black"/>
</g>
<g>
<polygon points = "947.377, 911.106 981.213, 895.805 992.592, 946.351 "
fill = "none" stroke = "black"/>
</g>
<g>
<polygon points = "826.338, 68.135 801.928, 40.057 843.917, 28.021 828.937, 68.603 "
fill = "none" stroke = "black"/>
</g>
<g>
<polygon points = "413.608, 888.054 393.039, 863.744 399.273, 845.620 469.900, 830.879 456.459, 881.864 445.591, 893.886 "
fill = "none" stroke = "black"/>
</g>
<g>
<polygon points = "722.575, 371.132 757.316, 383.063 752.899, 393.390 745.828, 398.838 716.173, 379.117 "
fill = "none" stroke = "black"/>
</g>
<g>
<polygon points = "5.251, 243.721 44.535, 288.310 23.629, 307.784 0.000, 319.710 0.000, 242.767 "
fill = "none" stroke = "black"/>
</g>
<g>
<polygon points = "408.469, 440.340 441.151, 453.227 441.688, 457.368 432.910, 468.764 400.991, 457.382 398.364, 451.912 "
fill = "none" stroke = "black"/>
</g>
<g>
<polygon points = "423.291, 22.226 415.421, 61.332 405.548, 76.637 386.683, 33.465 405.389, 19.846 "
fill = "none" stroke = "black"/>
</g>
<g>
<polygon points = "47.978, 664.620 56.299, 667.510 61.263, 696.724 37.989, 724.649 21.343, 723.321 0.000, 719.765 0.000, 682.685 "
fill = "none" stroke = "black"/>
</g>
<g>
<polygon points = "33.724, 224.092 49.608, 216.127 56.557, 222.174 55.711, 286.913 44.535, 288.310 5.251, 243.721 "
fill = "none" stroke = "black"/>
</g>
<g>
<polygon points = "445.591, 893.886 456.459, 881.864 497.316, 886.561 511.923, 890.880 504.892, 929.665 493.394, 937.635 455.014, 929.143 "
fill = "none" stroke = "black"/>
</g>
<g>
<polygon points = "132.181, 579.044 130.790, 576.132 139.595, 540.293 170.336, 517.291 181.874, 525.452 227.083, 586.732 229.605, 602.218 229.425, 602.242 "
fill = "none" stroke = "black"/>
</g>
<g>
<polygon points = "451.949, 269.775 436.657, 223.287 440.242, 200.954 448.194, 185.486 449.054, 184.469 489.934, 179.825 509.021, 237.358 496.000, 261.544 "
fill = "none" stroke = "black"/>
</g>
<g>
<polygon points = "167.659, 648.142 176.675, 637.180 204.561, 622.849 187.151, 661.676 "
fill = "none" stroke = "black"/>
</g>
<g>
<polygon points = "371.972, 256.429 335.582, 207.783 336.054, 207.362 367.039, 201.799 395.481, 211.310 "
fill = "none" stroke = "black"/>
</g>
<g>
<polygon points = "947.685, 271.932 945.669, 276.918 884.952, 259.027 883.667, 256.384 882.172, 229.782 911.334, 202.237 936.735, 200.728 "
fill = "none" stroke = "black"/>
</g>
<g>
<polygon points = "828.937, 68.603 843.917, 28.021 846.336, 26.453 851.212, 24.650 873.795, 62.243 835.020, 78.055 "
fill = "none" stroke = "black"/>
</g>
<g>
<polygon points = "269.439, 798.481 268.467, 779.112 308.246, 758.045 309.957, 758.279 309.587, 784.715 306.078, 789.044 284.265, 805.142 "
fill = "none" stroke = "black"/>
</g>
<g>
<polygon points = "434.755, 603.191 475.370, 631.452 493.945, 671.783 492.258, 673.575 452.270, 655.067 420.219, 614.765 "
fill = "none" stroke = "black"/>
</g>
<g>
<polygon points = "124.544, 821.750 150.412, 853.636 105.411, 860.979 99.696, 859.102 85.830, 850.483 "
fill = "none" stroke = "black"/>
</g>
<g>
<polygon points = "766.432, 468.988 813.340, 469.699 803.190, 502.322 802.167, 503.230 762.708, 472.075 "
fill = "none" stroke = "black"/>
</g>
<g>
<polygon points = "908.414, 667.538 896.732, 683.780 864.049, 664.384 907.017, 652.345 "
fill = "none" stroke = "black"/>
</g>
<g>
<polygon points = "811.982, 229.991 828.357, 265.880 820.558, 289.754 788.054, 281.349 783.523, 258.949 790.345, 229.286 "
fill = "none" stroke = "black"/>
</g>
<g>
<polygon points = "59.254, 529.695 76.696, 560.614 79.032, 566.690 33.319, 598.887 15.841, 600.388 0.000, 597.709 0.000, 570.689 "
fill = "none" stroke = "black"/>
</g>
<g>
<polygon points = "215.594, 150.194 255.865, 159.300 224.527, 193.213 210.916, 178.641 "
fill = "none" stroke = "black"/>
</g>
<g>
<polygon points = "221.558, 900.420 240.264, 880.702 241.715, 880.739 260.015, 917.702 231.304, 932.563 "
fill = "none" stroke = "black"/>
</g>
<g>
<polygon points = "337.773, 581.372 364.499, 614.534 367.101, 629.363 319.511, 640.948 268.608, 614.291 281.531, 597.221 291.419, 590.718 330.346, 577.883 "
fill = "none" stroke = "black"/>
</g>
<g>
<polygon points = "395.481, 211.310 367.039, 201.799 387.929, 182.943 448.194, 185.486 440.242, 200.954 "
fill = "none" stroke = "black"/>
</g>
<g>
<polygon points = "992.592, 946.351 981.213, 895.805 1000.000, 883.735 1000.000, 957.131 "
fill = "none" stroke = "black"/>
</g>
<g>
<polygon points = "611.150, 371.259 559.344, 355.140 582.272, 333.952 589.420, 332.292 669.763, 347.059 669.299, 355.862 "
fill = "none" stroke = "black"/>
</g>
<g>
<polygon points = "478.682, 756.611 475.954, 783.711 427.138, 772.985 411.067, 762.729 411.910, 739.248 "
fill = "none" stroke = "black"/>
</g>
<g>
<polygon points = "241.673, 114.820 240.002, 83.942 254.171, 72.063 270.272, 78.974 299.832, 126.200 282.106, 147.849 "
fill = "none" stroke = "black"/>
</g>
<g>
<polygon points = "689.869, 845.826 683.126, 854.490 643.367, 870.284 632.412, 855.058 641.001, 820.807 656.206, 822.396 "
fill = "none" stroke = "black"/>
</g>
<g>
<polygon points = "715.912, 797.342 702.298, 807.510 685.900, 806.521 667.020, 785.627 672.815, 775.038 "
fill = "none" stroke = "black"/>
</g>
<g>
<polygon points = "596.192, 521.607 610.173, 527.491 619.729, 537.477 625.108, 574.652 610.121, 602.437 590.999, 601.639 571.817, 591.931 556.044, 562.085 "
fill = "none" stroke = "black"/>
</g>
<g>
<polygon points = "682.130, 48.263 661.264, 66.523 611.267, 71.281 603.470, 45.466 624.145, 0.000 649.591, 0.000 "
fill = "none" stroke = "black"/>
</g>
<g>
<polygon points = "580.314, 748.031 553.420, 770.683 542.760, 771.758 509.822, 728.717 562.847, 725.104 "
fill = "none" stroke = "black"/>
</g>
<g>
<polygon points = "161.823, 673.470 118.108, 666.711 119.615, 630.877 159.663, 653.831 "
fill = "none" stroke = "black"/>
</g>
<g>
<polygon points = "641.485, 711.214 706.801, 650.966 731.634, 728.872 731.331, 730.811 676.067, 737.905 672.858, 737.592 641.827, 718.733 "
fill = "none" stroke = "black"/>
</g>
<g>
<polygon points = "853.756, 417.218 809.715, 426.903 804.993, 410.175 805.517, 407.385 860.784, 379.150 865.076, 378.427 "
fill = "none" stroke = "black"/>
</g>
<g>
<polygon points = "24.452, 155.708 42.159, 178.779 49.253, 208.485 49.608, 216.127 33.724, 224.092 0.000, 189.418 0.000, 154.710 "
fill = "none" stroke = "black"/>
</g>
<g>
<polygon points = "63.126, 978.970 130.778, 985.034 140.387, 1000.000 37.969, 1000.000 "
fill = "none" stroke = "black"/>
</g>
<g>
<polygon points = "525.565, 631.277 533.931, 629.401 567.232, 634.603 593.011, 658.763 593.011, 659.030 522.058, 671.119 506.453, 665.181 "
fill = "none" stroke = "black"/>
</g>
<g>
<polygon points = "213.076, 420.497 296.957, 399.689 305.808, 405.397 302.766, 432.009 294.003, 442.777 256.422, 451.047 223.148, 448.344 "
fill = "none" stroke = "black"/>
</g>
<g>
<polygon points = "114.542, 391.989 183.846, 378.676 207.511, 410.284 207.811, 416.137 172.566, 427.717 "
fill = "none" stroke = "black"/>
</g>
<g>
<polygon points = "497.594, 264.746 496.000, 261.544 509.021, 237.358 557.862, 249.177 536.117, 289.452 "
fill = "none" stroke = "black"/>
</g>
<g>
<polygon points = "822.908, 671.145 773.609, 680.005 772.586, 677.931 792.313, 650.847 "
fill = "none" stroke = "black"/>
</g>
<g>
<polygon points = "802.150, 717.675 773.931, 687.846 773.609, 680.005 822.908, 671.145 845.340, 673.493 840.254, 713.235 "
fill = "none" stroke = "black"/>
</g>
<g>
<polygon points = "562.349, 699.444 562.847, 725.104 509.822, 728.717 491.766, 720.083 484.403, 695.871 492.258, 673.575 493.945, 671.783 506.453, 665.181 522.058, 671.119 "
fill = "none" stroke = "black"/>
</g>
<g>
<polygon points = "862.606, 866.074 823.792, 948.077 803.955, 950.617 779.157, 927.722 789.038, 897.272 860.293, 863.420 "
fill = "none" stroke = "black"/>
</g>
<g>
<polygon points = "492.742, 470.622 496.167, 439.629 504.562, 436.763 569.468, 454.426 570.911, 458.226 518.480, 485.253 507.315, 485.323 "
fill = "none" stroke = "black"/>
</g>
<g>
<polygon points = "759.074, 472.118 762.708, 472.075 802.167, 503.230 779.899, 542.199 762.299, 547.337 742.944, 535.301 753.168, 479.979 "
fill = "none" stroke = "black"/>
</g>
<g>
<polygon points = "681.375, 595.924 691.193, 552.975 728.916, 531.772 742.944, 535.301 762.299, 547.337 759.975, 559.335 703.986, 632.338 693.619, 624.375 "
fill = "none" stroke = "black"/>
</g>
<g>
<polygon points = "281.531, 597.221 268.608, 614.291 258.483, 617.448 229.605, 602.218 227.083, 586.732 236.087, 526.531 245.108, 509.562 277.888, 530.004 "
fill = "none" stroke = "black"/>
</g>
<g>
<polygon points = "384.831, 787.635 390.437, 801.264 346.536, 852.842 346.314, 852.808 340.097, 810.355 380.498, 786.547 "
fill = "none" stroke = "black"/>
</g>
<g>
<polygon points = "159.809, 700.381 152.010, 703.977 110.149, 690.823 110.148, 690.665 118.108, 666.711 161.823, 673.470 166.373, 682.730 166.737, 688.711 "
fill = "none" stroke = "black"/>
</g>
<g>
<polygon points = "405.389, 19.846 386.683, 33.465 353.991, 24.196 351.826, 0.000 389.100, 0.000 "
fill = "none" stroke = "black"/>
</g>
<g>
<polygon points = "909.046, 698.059 909.743, 707.760 907.584, 724.132 906.867, 728.276 842.078, 715.935 840.254, 713.235 845.340, 673.493 847.325, 670.158 861.929, 663.887 864.049, 664.384 896.732, 683.780 "
fill = "none" stroke = "black"/>
</g>
<g>
<polygon points = "58.571, 126.992 96.111, 126.890 104.019, 142.100 89.240, 178.536 42.159, 178.779 24.452, 155.708 "
fill = "none" stroke = "black"/>
</g>
<g>
<polygon points = "48.619, 344.370 23.629, 307.784 44.535, 288.310 55.711, 286.913 102.145, 298.582 "
fill = "none" stroke = "black"/>
</g>
<g>
<polygon points = "185.208, 183.812 210.916, 178.641 224.527, 193.213 225.574, 202.545 208.522, 237.862 189.293, 263.093 168.611, 216.742 "
fill = "none" stroke = "black"/>
</g>
<g>
<polygon points = "748.170, 855.165 733.573, 863.294 692.623, 844.914 702.298, 807.510 715.912, 797.342 716.746, 797.003 729.817, 795.327 734.259, 798.837 734.584, 799.155 "
fill = "none" stroke = "black"/>
</g>
<g>
<polygon points = "165.009, 57.451 121.723, 23.807 119.629, 1.240 119.895, 0.000 201.831, 0.000 "
fill = "none" stroke = "black"/>
</g>
<g>
<polygon points = "962.918, 185.480 896.998, 128.576 963.568, 121.653 1000.000, 164.713 1000.000, 173.238 "
fill = "none" stroke = "black"/>
</g>
<g>
<polygon points = "661.264, 66.523 680.553, 101.874 654.658, 123.415 649.367, 123.472 610.332, 73.488 611.267, 71.281 "
fill = "none" stroke = "black"/>
</g>
<g>
<polygon points = "855.095, 814.468 842.300, 803.885 841.708, 803.102 840.825, 801.045 842.078, 715.935 906.867, 728.276 923.370, 754.426 896.190, 790.869 "
fill = "none" stroke = "black"/>
</g>
<g>
<polygon points = "381.099, 718.511 363.521, 715.988 358.644, 698.920 388.351, 646.619 407.715, 666.070 411.058, 677.757 "
fill = "none" stroke = "black"/>
</g>
<g>
<polygon points = "809.658, 446.548 809.715, 426.903 853.756, 417.218 860.328, 458.236 859.584, 459.320 817.766, 458.761 "
fill = "none" stroke = "black"/>
</g>
<g>
<polygon points = "201.570, 82.697 240.002, 83.942 241.673, 114.820 201.025, 133.376 184.146, 126.732 186.427, 87.579 "
fill = "none" stroke = "black"/>
</g>
<g>
<polygon points = "17.675, 420.422 46.047, 434.262 32.821, 480.192 0.000, 477.009 0.000, 413.837 "
fill = "none" stroke = "black"/>
</g>
<g>
<polygon points = "619.966, 211.596 597.794, 267.347 586.666, 269.012 565.671, 246.867 566.890, 243.564 616.819, 208.929 618.773, 209.203 "
fill = "none" stroke = "black"/>
</g>
<g>
<polygon points = "727.430, 922.470 700.097, 925.400 687.553, 891.238 689.430, 888.295 731.404, 867.581 "
fill = "none" stroke = "black"/>
</g>
<g>
<polygon points = "445.924, 351.350 468.336, 353.125 475.887, 363.794 458.467, 390.339 438.587, 374.031 "
fill = "none" stroke = "black"/>
</g>
<g>
<polygon points = "413.608, 888.054 445.591, 893.886 455.014, 929.143 442.813, 959.414 372.818, 927.147 "
fill = "none" stroke = "black"/>
</g>
<g>
<polygon points = "549.331, 925.753 504.892, 929.665 511.923, 890.880 519.707, 889.496 537.282, 887.773 544.289, 896.607 550.627, 915.537 "
fill = "none" stroke = "black"/>
</g>
<g>
<polygon points = "350.497, 281.735 296.076, 285.761 286.969, 277.735 320.523, 208.544 335.582, 207.783 371.972, 256.429 373.246, 259.275 "
fill = "none" stroke = "black"/>
</g>
<g>
<polygon points = "526.241, 564.795 514.498, 589.389 476.834, 589.237 458.165, 579.247 467.462, 529.983 477.963, 529.042 512.830, 544.614 "
fill = "none" stroke = "black"/>
</g>
<g>
<polygon points = "941.447, 452.984 926.620, 452.285 902.156, 433.643 907.632, 405.139 923.498, 404.817 950.399, 421.419 "
fill = "none" stroke = "black"/>
</g>
<g>
<polygon points = "816.511, 226.843 846.787, 212.395 882.172, 229.782 883.667, 256.384 828.357, 265.880 811.982, 229.991 "
fill = "none" stroke = "black"/>
</g>
<g>
<polygon points = "258.787, 833.070 224.286, 821.270 223.620, 817.901 234.425, 789.743 269.439, 798.481 284.265, 805.142 273.535, 833.727 "
fill = "none" stroke = "black"/>
</g>
<g>
<polygon points = "883.667, 256.384 884.952, 259.027 879.343, 281.661 822.735, 294.415 820.558, 289.754 828.357, 265.880 "
fill = "none" stroke = "black"/>
</g>
<g>
<polygon points = "418.844, 541.987 438.373, 514.352 446.472, 515.403 467.462, 529.983 458.165, 579.247 445.411, 586.142 "
fill = "none" stroke = "black"/>
</g>
<g>
<polygon points = "687.148, 625.323 693.619, 624.375 703.986, 632.338 709.322, 643.955 706.801, 650.966 641.485, 711.214 634.595, 702.591 636.168, 682.946 650.986, 638.326 "
fill = "none" stroke = "black"/>
</g>
<g>
<polygon points = "923.498, 404.817 907.632, 405.139 893.657, 387.833 925.847, 346.561 954.902, 359.466 961.019, 373.462 "
fill = "none" stroke = "black"/>
</g>
<g>
<polygon points = "906.818, 589.251 949.297, 555.864 953.672, 618.862 938.330, 630.653 934.169, 629.332 923.037, 620.773 "
fill = "none" stroke = "black"/>
</g>
<g>
<polygon points = "183.860, 378.536 183.846, 378.676 114.542, 391.989 106.658, 389.563 120.537, 328.685 "
fill = "none" stroke = "black"/>
</g>
<g>
<polygon points = "907.584, 724.132 909.743, 707.760 953.897, 693.325 956.493, 695.178 "
fill = "none" stroke = "black"/>
</g>
<g>
<polygon points = "434.203, 14.439 423.291, 22.226 405.389, 19.846 389.100, 0.000 437.296, 0.000 "
fill = "none" stroke = "black"/>
</g>
<g>
<polygon points = "33.724, 224.092 5.251, 243.721 0.000, 242.767 0.000, 189.418 "
fill = "none" stroke = "black"/>
</g>
<g>
<polygon points = "21.343, 723.321 37.989, 724.649 71.809, 756.776 63.534, 779.035 34.087, 795.462 "
fill = "none" stroke = "black"/>
</g>
<g>
<polygon points = "910.895, 533.320 870.074, 552.522 878.054, 508.462 897.928, 506.829 "
fill = "none" stroke = "black"/>
</g>
<g>
<polygon points = "353.569, 855.769 346.536, 852.842 390.437, 801.264 405.293, 817.310 399.273, 845.620 393.039, 863.744 "
fill = "none" stroke = "black"/>
</g>
<g>
<polygon points = "685.900, 806.521 656.206, 822.396 641.001, 820.807 636.221, 810.809 639.303, 800.576 667.020, 785.627 "
fill = "none" stroke = "black"/>
</g>
<g>
<polygon points = "643.951, 874.226 619.124, 919.320 598.212, 902.738 590.142, 876.364 593.058, 858.582 632.412, 855.058 643.367, 870.284 "
fill = "none" stroke = "black"/>
</g>
<g>
<polygon points = "907.312, 482.465 912.150, 488.743 911.812, 493.783 897.928, 506.829 878.054, 508.462 864.819, 498.497 859.935, 460.245 "
fill = "none" stroke = "black"/>
</g>
<g>
<polygon points = "214.115, 729.613 195.609, 737.931 192.951, 733.146 198.614, 690.528 202.620, 688.865 "
fill = "none" stroke = "black"/>
</g>
<g>
<polygon points = "826.095, 319.135 874.766, 300.650 864.599, 342.538 861.253, 346.499 831.411, 326.754 "
fill = "none" stroke = "black"/>
</g>
<g>
<polygon points = "444.979, 586.502 445.411, 586.142 458.165, 579.247 476.834, 589.237 475.370, 631.452 434.755, 603.191 "
fill = "none" stroke = "black"/>
</g>
<g>
<polygon points = "896.998, 128.576 962.918, 185.480 936.735, 200.728 911.334, 202.237 871.170, 133.958 880.527, 125.701 "
fill = "none" stroke = "black"/>
</g>
<g>
<polygon points = "353.824, 495.983 349.656, 487.767 349.116, 479.648 365.391, 463.388 391.068, 451.321 398.364, 451.912 400.991, 457.382 404.542, 493.525 "
fill = "none" stroke = "black"/>
</g>
<g>
<polygon points = "342.931, 359.401 333.870, 388.065 323.614, 397.403 305.808, 405.397 296.957, 399.689 286.092, 384.291 279.225, 356.763 302.207, 310.296 327.329, 331.580 "
fill = "none" stroke = "black"/>
</g>
<g>
<polygon points = "676.067, 737.905 731.331, 730.811 732.273, 732.101 735.413, 748.679 729.817, 795.327 716.746, 797.003 "
fill = "none" stroke = "black"/>
</g>
<g>
<polygon points = "51.918, 106.736 23.522, 83.582 34.343, 68.184 63.231, 49.363 66.921, 52.334 68.442, 58.000 "
fill = "none" stroke = "black"/>
</g>
<g>
<polygon points = "119.629, 1.240 52.797, 26.738 27.525, 0.000 119.895, 0.000 "
fill = "none" stroke = "black"/>
</g>
<g>
<polygon points = "118.717, 882.378 105.411, 860.979 150.412, 853.636 152.472, 854.647 157.759, 862.375 "
fill = "none" stroke = "black"/>
</g>
<g>
<polygon points = "49.253, 208.485 93.788, 190.713 98.300, 196.847 94.690, 223.349 92.096, 226.992 56.557, 222.174 49.608, 216.127 "
fill = "none" stroke = "black"/>
</g>
<g>
<polygon points = "46.484, 366.094 49.288, 367.979 17.675, 420.422 0.000, 413.837 0.000, 363.923 "
fill = "none" stroke = "black"/>
</g>
<g>
<polygon points = "559.500, 210.226 594.096, 187.414 616.819, 208.929 566.890, 243.564 "
fill = "none" stroke = "black"/>
</g>
<g>
<polygon points = "611.977, 607.459 610.121, 602.437 625.108, 574.652 681.375, 595.924 693.619, 624.375 687.148, 625.323 "
fill = "none" stroke = "black"/>
</g>
<g>
<polygon points = "308.246, 758.045 262.480, 745.111 275.696, 693.237 297.214, 703.884 302.145, 713.774 317.652, 750.037 309.957, 758.279 "
fill = "none" stroke = "black"/>
</g>
<g>
<polygon points = "223.445, 956.184 294.332, 928.464 283.980, 955.778 205.780, 991.190 "
fill = "none" stroke = "black"/>
</g>
<g>
<polygon points = "770.340, 368.360 757.316, 383.063 722.575, 371.132 723.098, 363.908 737.942, 349.975 751.337, 351.767 769.825, 364.097 "
fill = "none" stroke = "black"/>
</g>
<g>
<polygon points = "15.841, 600.388 33.319, 598.887 81.574, 633.544 70.944, 656.719 56.299, 667.510 47.978, 664.620 "
fill = "none" stroke = "black"/>
</g>
<g>
<polygon points = "825.756, 631.993 827.608, 620.907 863.518, 596.546 871.212, 622.387 865.999, 654.152 861.929, 663.887 847.325, 670.158 "
fill = "none" stroke = "black"/>
</g>
<g>
<polygon points = "187.151, 661.676 204.561, 622.849 229.425, 602.242 229.605, 602.218 258.483, 617.448 250.016, 664.109 244.229, 670.357 218.783, 678.226 187.129, 664.332 "
fill = "none" stroke = "black"/>
</g>
<g>
<polygon points = "932.836, 673.134 909.046, 698.059 896.732, 683.780 908.414, 667.538 "
fill = "none" stroke = "black"/>
</g>
<g>
<polygon points = "574.137, 136.816 556.416, 206.725 490.998, 178.924 494.659, 173.421 517.189, 152.256 568.868, 130.338 "
fill = "none" stroke = "black"/>
</g>
<g>
<polygon points = "485.758, 809.428 510.964, 800.386 572.920, 826.024 572.082, 838.814 542.685, 856.414 513.501, 839.262 484.630, 813.080 "
fill = "none" stroke = "black"/>
</g>
<g>
<polygon points = "346.430, 689.325 328.677, 673.814 319.511, 640.948 367.101, 629.363 386.503, 637.738 388.351, 646.619 358.644, 698.920 "
fill = "none" stroke = "black"/>
</g>
<g>
<polygon points = "304.893, 41.137 342.429, 53.239 353.181, 100.336 291.380, 66.693 300.693, 42.539 "
fill = "none" stroke = "black"/>
</g>
<g>
<polygon points = "346.430, 689.325 358.644, 698.920 363.521, 715.988 338.800, 743.824 317.652, 750.037 302.145, 713.774 "
fill = "none" stroke = "black"/>
</g>
<g>
<polygon points = "205.780, 991.190 283.980, 955.778 294.781, 978.494 294.979, 1000.000 198.329, 1000.000 "
fill = "none" stroke = "black"/>
</g>
<g>
<polygon points = "982.449, 829.219 948.870, 827.302 896.190, 790.869 923.370, 754.426 975.586, 752.159 1000.000, 760.540 1000.000, 825.980 "
fill = "none" stroke = "black"/>
</g>
<g>
<polygon points = "381.665, 393.507 333.870, 388.065 342.931, 359.401 357.364, 349.870 397.892, 343.655 399.127, 348.229 "
fill = "none" stroke = "black"/>
</g>
<g>
<polygon points = "312.070, 869.826 306.078, 789.044 309.587, 784.715 340.097, 810.355 346.314, 852.808 "
fill = "none" stroke = "black"/>
</g>
<g>
<polygon points = "504.562, 436.763 515.791, 396.601 556.693, 361.406 568.701, 397.991 569.468, 454.426 "
fill = "none" stroke = "black"/>
</g>
<g>
<polygon points = "23.629, 307.784 48.619, 344.370 46.484, 366.094 0.000, 363.923 0.000, 319.710 "
fill = "none" stroke = "black"/>
</g>
<g>
<polygon points = "802.051, 965.580 819.632, 1000.000 764.432, 1000.000 "
fill = "none" stroke = "black"/>
</g>
<g>
<polygon points = "378.907, 260.857 373.246, 259.275 371.972, 256.429 395.481, 211.310 440.242, 200.954 436.657, 223.287 "
fill = "none" stroke = "black"/>
</g>
<g>
<polygon points = "377.298, 430.486 355.585, 424.443 323.614, 397.403 333.870, 388.065 381.665, 393.507 391.941, 400.055 "
fill = "none" stroke = "black"/>
</g>
<g>
<polygon points = "603.470, 45.466 556.873, 25.167 553.191, 0.000 624.145, 0.000 "
fill = "none" stroke = "black"/>
</g>
<g>
<polygon points = "471.704, 405.302 487.743, 435.315 467.431, 444.690 449.533, 437.991 448.543, 434.294 451.997, 412.081 462.975, 402.756 "
fill = "none" stroke = "black"/>
</g>
<g>
<polygon points = "973.461, 968.645 975.947, 1000.000 941.139, 1000.000 957.710, 962.519 "
fill = "none" stroke = "black"/>
</g>
<g>
<polygon points = "223.620, 817.901 224.286, 821.270 212.468, 844.789 208.360, 846.748 167.495, 818.271 168.909, 793.955 "
fill = "none" stroke = "black"/>
</g>
<g>
<polygon points = "772.381, 839.639 842.300, 803.885 855.095, 814.468 860.278, 863.351 764.440, 847.212 "
fill = "none" stroke = "black"/>
</g>
<g>
<polygon points = "846.136, 561.334 842.469, 509.825 864.819, 498.497 878.054, 508.462 870.074, 552.522 862.559, 566.799 "
fill = "none" stroke = "black"/>
</g>
<g>
<polygon points = "122.505, 227.305 159.089, 292.382 124.769, 305.372 113.461, 299.644 92.096, 226.992 94.690, 223.349 99.633, 222.702 "
fill = "none" stroke = "black"/>
</g>
<g>
<polygon points = "698.612, 387.989 669.473, 358.009 669.299, 355.862 669.763, 347.059 671.568, 344.182 674.180, 341.439 689.651, 338.606 723.098, 363.908 722.575, 371.132 716.173, 379.117 702.074, 387.731 "
fill = "none" stroke = "black"/>
</g>
<g>
<polygon points = "275.696, 693.237 262.480, 745.111 253.389, 746.231 231.472, 724.704 244.229, 670.357 250.016, 664.109 "
fill = "none" stroke = "black"/>
</g>
<g>
<polygon points = "731.404, 867.581 689.430, 888.295 683.126, 854.490 689.869, 845.826 692.623, 844.914 733.573, 863.294 "
fill = "none" stroke = "black"/>
</g>
<g>
<polygon points = "793.020, 382.933 770.340, 368.360 769.825, 364.097 782.244, 344.362 813.820, 354.170 815.718, 365.706 "
fill = "none" stroke = "black"/>
</g>
<g>
<polygon points = "634.595, 702.591 599.855, 678.324 593.011, 659.030 593.011, 658.763 613.514, 628.087 629.512, 636.986 636.168, 682.946 "
fill = "none" stroke = "black"/>
</g>
<g>
<polygon points = "377.210, 576.177 387.344, 566.503 413.626, 615.887 386.503, 637.738 367.101, 629.363 364.499, 614.534 "
fill = "none" stroke = "black"/>
</g>
<g>
<polygon points = "432.334, 158.144 364.831, 130.910 352.318, 105.307 353.662, 101.500 404.699, 79.945 437.451, 98.542 "
fill = "none" stroke = "black"/>
</g>
<g>
<polygon points = "94.468, 521.160 66.001, 503.062 106.309, 471.834 127.204, 526.354 "
fill = "none" stroke = "black"/>
</g>
<g>
<polygon points = "127.204, 526.354 106.309, 471.834 108.832, 464.469 160.527, 469.712 168.633, 480.376 170.982, 515.193 170.336, 517.291 139.595, 540.293 "
fill = "none" stroke = "black"/>
</g>
<g>
<polygon points = "709.322, 643.955 703.986, 632.338 759.975, 559.335 779.587, 609.768 777.293, 623.011 735.152, 647.135 "
fill = "none" stroke = "black"/>
</g>
<g>
<polygon points = "511.878, 68.356 500.177, 106.347 465.536, 102.106 459.902, 97.107 505.890, 69.509 "
fill = "none" stroke = "black"/>
</g>
<g>
<polygon points = "634.843, 146.667 635.730, 147.862 636.041, 194.769 633.714, 196.029 607.502, 146.096 "
fill = "none" stroke = "black"/>
</g>
<g>
<polygon points = "680.534, 547.546 628.325, 537.144 673.266, 510.148 "
fill = "none" stroke = "black"/>
</g>
<g>
<polygon points = "687.421, 435.903 687.767, 430.619 696.978, 410.565 731.159, 434.574 731.614, 437.541 724.001, 444.187 "
fill = "none" stroke = "black"/>
</g>
<g>
<polygon points = "21.540, 913.724 67.549, 887.709 67.906, 888.601 70.700, 922.729 "
fill = "none" stroke = "black"/>
</g>
<g>
<polygon points = "467.462, 529.983 446.472, 515.403 466.995, 474.374 492.742, 470.622 507.315, 485.323 477.963, 529.042 "
fill = "none" stroke = "black"/>
</g>
<g>
<polygon points = "450.915, 305.107 484.366, 319.660 468.336, 353.125 445.924, 351.350 431.744, 321.255 "
fill = "none" stroke = "black"/>
</g>
<g>
<polygon points = "871.212, 622.387 913.634, 623.272 865.999, 654.152 "
fill = "none" stroke = "black"/>
</g>
<g>
<polygon points = "164.719, 213.924 168.611, 216.742 189.293, 263.093 188.659, 283.572 159.089, 292.382 122.505, 227.305 139.414, 208.342 "
fill = "none" stroke = "black"/>
</g>
<g>
<polygon points = "782.984, 285.809 788.054, 281.349 820.558, 289.754 822.735, 294.415 824.109, 306.586 823.781, 316.293 785.995, 328.991 779.487, 321.024 "
fill = "none" stroke = "black"/>
</g>
<g>
<polygon points = "340.664, 953.321 347.894, 941.532 351.862, 941.775 393.305, 1000.000 324.468, 1000.000 "
fill = "none" stroke = "black"/>
</g>
<g>
<polygon points = "571.817, 591.931 590.999, 601.639 567.232, 634.603 533.931, 629.401 "
fill = "none" stroke = "black"/>
</g>
<g>
<polygon points = "39.111, 500.193 41.598, 497.979 56.644, 505.934 59.254, 529.695 0.000, 570.689 0.000, 562.131 "
fill = "none" stroke = "black"/>
</g>
<g>
<polygon points = "399.127, 348.229 397.892, 343.655 409.175, 323.443 431.744, 321.255 445.924, 351.350 438.587, 374.031 422.642, 377.572 "
fill = "none" stroke = "black"/>
</g>
<g>
<polygon points = "173.561, 872.865 169.217, 873.391 157.759, 862.375 152.472, 854.647 167.495, 818.271 208.360, 846.748 "
fill = "none" stroke = "black"/>
</g>
<g>
<polygon points = "689.651, 338.606 716.747, 324.891 737.942, 349.975 723.098, 363.908 "
fill = "none" stroke = "black"/>
</g>
<g>
<polygon points = "434.238, 511.122 418.600, 505.598 404.542, 493.525 400.991, 457.382 432.910, 468.764 "
fill = "none" stroke = "black"/>
</g>
<g>
<polygon points = "216.959, 392.707 248.175, 376.718 286.092, 384.291 296.957, 399.689 213.076, 420.497 207.811, 416.137 207.511, 410.284 "
fill = "none" stroke = "black"/>
</g>
<g>
<polygon points = "465.536, 102.106 500.177, 106.347 517.189, 152.256 494.659, 173.421 "
fill = "none" stroke = "black"/>
</g>
<g>
<polygon points = "814.077, 601.154 779.587, 609.768 759.975, 559.335 762.299, 547.337 779.899, 542.199 817.968, 562.126 "
fill = "none" stroke = "black"/>
</g>
<g>
<polygon points = "631.842, 295.239 645.003, 316.159 601.086, 322.866 "
fill = "none" stroke = "black"/>
</g>
<g>
<polygon points = "731.159, 434.574 696.978, 410.565 694.468, 402.118 698.612, 387.989 702.074, 387.731 735.222, 412.225 "
fill = "none" stroke = "black"/>
</g>
<g>
<polygon points = "130.778, 985.034 117.269, 953.934 125.708, 925.014 163.173, 887.504 187.186, 934.906 188.882, 1000.000 140.387, 1000.000 "
fill = "none" stroke = "black"/>
</g>
<g>
<polygon points = "963.316, 471.620 918.922, 481.368 926.620, 452.285 941.447, 452.984 "
fill = "none" stroke = "black"/>
</g>
<g>
<polygon points = "283.489, 527.055 297.862, 495.668 305.348, 498.418 315.241, 529.608 "
fill = "none" stroke = "black"/>
</g>
<g>
<polygon points = "568.868, 130.338 517.189, 152.256 500.177, 106.347 511.878, 68.356 513.748, 66.972 570.457, 122.480 "
fill = "none" stroke = "black"/>
</g>
<g>
<polygon points = "542.685, 856.414 572.082, 838.814 593.058, 858.582 590.142, 876.364 544.289, 896.607 537.282, 887.773 "
fill = "none" stroke = "black"/>
</g>
<g>
<polygon points = "273.808, 277.102 266.174, 208.129 269.045, 201.334 290.419, 184.294 320.523, 208.544 286.969, 277.735 "
fill = "none" stroke = "black"/>
</g>
<g>
<polygon points = "52.797, 26.738 119.629, 1.240 121.723, 23.807 105.887, 42.334 66.921, 52.334 63.231, 49.363 "
fill = "none" stroke = "black"/>
</g>
<g>
<polygon points = "357.031, 303.694 350.497, 281.735 373.246, 259.275 378.907, 260.857 393.968, 275.800 403.338, 316.109 363.106, 310.720 "
fill = "none" stroke = "black"/>
</g>
<g>
<polygon points = "647.645, 488.720 677.455, 503.111 673.266, 510.148 628.325, 537.144 619.729, 537.477 610.173, 527.491 "
fill = "none" stroke = "black"/>
</g>
<g>
<polygon points = "270.173, 277.452 254.182, 221.092 266.174, 208.129 273.808, 277.102 "
fill = "none" stroke = "black"/>
</g>
<g>
<polygon points = "749.042, 285.268 748.125, 285.438 734.097, 286.650 707.431, 268.094 697.939, 237.838 717.403, 205.582 721.257, 205.839 751.797, 266.440 "
fill = "none" stroke = "black"/>
</g>
<g>
<polygon points = "779.587, 609.768 814.077, 601.154 827.608, 620.907 825.756, 631.993 793.574, 635.186 777.293, 623.011 "
fill = "none" stroke = "black"/>
</g>
<g>
<polygon points = "498.319, 319.467 497.594, 264.746 536.117, 289.452 540.534, 340.232 "
fill = "none" stroke = "black"/>
</g>
<g>
<polygon points = "174.323, 140.201 185.208, 183.812 168.611, 216.742 164.719, 213.924 143.180, 158.491 "
fill = "none" stroke = "black"/>
</g>
<g>
<polygon points = "752.899, 393.390 757.316, 383.063 770.340, 368.360 793.020, 382.933 805.517, 407.385 804.993, 410.175 787.451, 413.411 766.625, 409.482 "
fill = "none" stroke = "black"/>
</g>
<g>
<polygon points = "858.206, 9.720 851.212, 24.650 846.336, 26.453 800.234, 0.000 860.511, 0.000 "
fill = "none" stroke = "black"/>
</g>
<g>
<polygon points = "673.092, 461.587 702.790, 483.602 702.890, 493.496 677.455, 503.111 647.645, 488.720 649.136, 480.553 "
fill = "none" stroke = "black"/>
</g>
<g>
<polygon points = "113.461, 299.644 102.145, 298.582 55.711, 286.913 56.557, 222.174 92.096, 226.992 "
fill = "none" stroke = "black"/>
</g>
<g>
<polygon points = "509.021, 237.358 489.934, 179.825 490.998, 178.924 556.416, 206.725 559.500, 210.226 566.890, 243.564 565.671, 246.867 557.862, 249.177 "
fill = "none" stroke = "black"/>
</g>
<g>
<polygon points = "49.288, 367.979 101.005, 394.262 90.468, 417.371 46.047, 434.262 17.675, 420.422 "
fill = "none" stroke = "black"/>
</g>
<g>
<polygon points = "740.825, 307.112 726.421, 304.369 734.097, 286.650 748.125, 285.438 "
fill = "none" stroke = "black"/>
</g>
<g>
<polygon points = "52.797, 26.738 63.231, 49.363 34.343, 68.184 0.000, 33.677 0.000, 0.000 27.525, 0.000 "
fill = "none" stroke = "black"/>
</g>
<g>
<polygon points = "363.521, 715.988 381.099, 718.511 410.934, 734.943 411.910, 739.248 411.067, 762.729 384.831, 787.635 380.498, 786.547 338.800, 743.824 "
fill = "none" stroke = "black"/>
</g>
<g>
<polygon points = "796.118, 40.539 778.966, 55.403 752.556, 24.592 761.143, 0.000 792.252, 0.000 "
fill = "none" stroke = "black"/>
</g>
<g>
<polygon points = "783.688, 114.646 773.191, 167.690 750.617, 201.010 721.257, 205.839 717.403, 205.582 700.794, 184.504 700.004, 180.774 700.306, 167.294 702.698, 159.566 774.670, 104.830 "
fill = "none" stroke = "black"/>
</g>
<g>
<polygon points = "673.640, 307.204 646.317, 265.975 646.267, 265.257 649.148, 259.957 697.939, 237.838 707.431, 268.094 700.607, 289.193 "
fill = "none" stroke = "black"/>
</g>
<g>
<polygon points = "460.615, 38.396 458.559, 48.563 415.421, 61.332 423.291, 22.226 434.203, 14.439 "
fill = "none" stroke = "black"/>
</g>
<g>
<polygon points = "219.496, 498.752 170.982, 515.193 168.633, 480.376 192.093, 473.410 "
fill = "none" stroke = "black"/>
</g>
<g>
<polygon points = "234.425, 789.743 234.257, 782.372 268.467, 779.112 269.439, 798.481 "
fill = "none" stroke = "black"/>
</g>
<g>
<polygon points = "971.402, 334.470 941.999, 300.405 947.541, 282.569 1000.000, 296.182 1000.000, 329.943 "
fill = "none" stroke = "black"/>
</g>
<g>
<polygon points = "824.109, 306.586 822.735, 294.415 879.343, 281.661 879.987, 290.836 875.671, 298.129 "
fill = "none" stroke = "black"/>
</g>
<g>
<polygon points = "556.044, 562.085 571.817, 591.931 533.931, 629.401 525.565, 631.277 514.498, 589.389 526.241, 564.795 "
fill = "none" stroke = "black"/>
</g>
<g>
<polygon points = "628.325, 537.144 680.534, 547.546 691.193, 552.975 681.375, 595.924 625.108, 574.652 619.729, 537.477 "
fill = "none" stroke = "black"/>
</g>
<g>
<polygon points = "981.213, 895.805 947.377, 911.106 935.756, 914.328 912.033, 896.518 982.449, 829.219 1000.000, 825.980 1000.000, 883.735 "
fill = "none" stroke = "black"/>
</g>
<g>
<polygon points = "418.600, 505.598 434.238, 511.122 438.373, 514.352 418.844, 541.987 397.196, 559.043 388.326, 561.732 367.932, 538.211 "
fill = "none" stroke = "black"/>
</g>
<g>
<polygon points = "817.968, 562.126 779.899, 542.199 802.167, 503.230 803.190, 502.322 842.469, 509.825 846.136, 561.334 "
fill = "none" stroke = "black"/>
</g>
<g>
<polygon points = "911.334, 202.237 882.172, 229.782 846.787, 212.395 842.360, 168.185 856.653, 136.949 871.170, 133.958 "
fill = "none" stroke = "black"/>
</g>
<g>
<polygon points = "805.517, 407.385 793.020, 382.933 815.718, 365.706 860.784, 379.150 "
fill = "none" stroke = "black"/>
</g>
<g>
<polygon points = "887.758, 580.299 869.886, 577.123 862.559, 566.799 870.074, 552.522 910.895, 533.320 918.505, 538.542 "
fill = "none" stroke = "black"/>
</g>
<g>
<polygon points = "504.892, 929.665 549.331, 925.753 556.481, 945.819 521.544, 983.939 493.394, 937.635 "
fill = "none" stroke = "black"/>
</g>
<g>
<polygon points = "372.818, 927.147 442.813, 959.414 441.787, 965.204 431.803, 978.792 371.515, 927.882 "
fill = "none" stroke = "black"/>
</g>
<g>
<polygon points = "139.414, 208.342 122.505, 227.305 99.633, 222.702 137.115, 207.300 "
fill = "none" stroke = "black"/>
</g>
<g>
<polygon points = "81.957, 806.228 63.534, 779.035 71.809, 756.776 101.011, 748.704 136.342, 764.802 143.232, 772.784 125.078, 801.005 "
fill = "none" stroke = "black"/>
</g>
<g>
<polygon points = "136.342, 764.802 101.011, 748.704 103.776, 698.366 110.149, 690.823 152.010, 703.977 "
fill = "none" stroke = "black"/>
</g>
<g>
<polygon points = "947.685, 271.932 936.735, 200.728 962.918, 185.480 1000.000, 173.238 1000.000, 232.691 "
fill = "none" stroke = "black"/>
</g>
<g>
<polygon points = "280.259, 154.679 290.419, 184.294 269.045, 201.334 225.574, 202.545 224.527, 193.213 255.865, 159.300 "
fill = "none" stroke = "black"/>
</g>
<g>
<polygon points = "779.157, 927.722 751.016, 937.113 727.430, 922.470 731.404, 867.581 733.573, 863.294 748.170, 855.165 750.042, 855.578 789.038, 897.272 "
fill = "none" stroke = "black"/>
</g>
<g>
<polygon points = "243.933, 879.908 258.787, 833.070 273.535, 833.727 305.985, 873.690 "
fill = "none" stroke = "black"/>
</g>
<g>
<polygon points = "484.403, 695.871 445.058, 704.521 411.058, 677.757 407.715, 666.070 452.270, 655.067 492.258, 673.575 "
fill = "none" stroke = "black"/>
</g>
<g>
<polygon points = "130.404, 157.999 143.180, 158.491 164.719, 213.924 139.414, 208.342 137.115, 207.300 121.447, 191.936 "
fill = "none" stroke = "black"/>
</g>
<g>
<polygon points = "387.929, 182.943 362.832, 144.565 364.831, 130.910 432.334, 158.144 449.054, 184.469 448.194, 185.486 "
fill = "none" stroke = "black"/>
</g>
<g>
<polygon points = "909.743, 707.760 909.046, 698.059 932.836, 673.134 936.409, 670.660 953.897, 693.325 "
fill = "none" stroke = "black"/>
</g>
<g>
<polygon points = "866.062, 967.581 823.792, 948.077 862.606, 866.074 884.571, 882.112 887.652, 885.710 "
fill = "none" stroke = "black"/>
</g>
<g>
<polygon points = "362.832, 144.565 387.929, 182.943 367.039, 201.799 336.054, 207.362 "
fill = "none" stroke = "black"/>
</g>
<g>
<polygon points = "537.282, 887.773 519.707, 889.496 509.605, 859.399 513.501, 839.262 542.685, 856.414 "
fill = "none" stroke = "black"/>
</g>
<g>
<polygon points = "975.586, 752.159 923.370, 754.426 906.867, 728.276 907.584, 724.132 956.493, 695.178 958.002, 696.105 "
fill = "none" stroke = "black"/>
</g>
<g>
<polygon points = "556.693, 361.406 556.824, 356.612 559.344, 355.140 611.150, 371.259 647.443, 394.866 647.251, 396.133 645.737, 400.303 629.269, 406.505 568.701, 397.991 "
fill = "none" stroke = "black"/>
</g>
<g>
<polygon points = "237.966, 4.941 306.403, 20.327 304.893, 41.137 300.693, 42.539 249.330, 25.340 "
fill = "none" stroke = "black"/>
</g>
<g>
<polygon points = "328.677, 673.814 297.214, 703.884 275.696, 693.237 250.016, 664.109 258.483, 617.448 268.608, 614.291 319.511, 640.948 "
fill = "none" stroke = "black"/>
</g>
<g>
<polygon points = "327.329, 331.580 302.207, 310.296 296.076, 285.761 350.497, 281.735 357.031, 303.694 "
fill = "none" stroke = "black"/>
</g>
<g>
<polygon points = "618.773, 209.203 616.819, 208.929 594.096, 187.414 574.981, 137.559 607.502, 146.096 633.714, 196.029 "
fill = "none" stroke = "black"/>
</g>
<g>
<polygon points = "405.293, 817.310 424.663, 815.029 471.473, 826.188 469.900, 830.879 399.273, 845.620 "
fill = "none" stroke = "black"/>
</g>
<g>
<polygon points = "935.756, 914.328 937.331, 939.899 876.923, 993.464 866.062, 967.581 887.652, 885.710 912.033, 896.518 "
fill = "none" stroke = "black"/>
</g>
<g>
<polygon points = "187.186, 934.906 205.939, 898.531 221.558, 900.420 231.304, 932.563 223.445, 956.184 205.780, 991.190 198.329, 1000.000 188.882, 1000.000 "
fill = "none" stroke = "black"/>
</g>
<g>
<polygon points = "689.651, 338.606 674.180, 341.439 673.640, 307.204 700.607, 289.193 718.148, 317.490 717.867, 323.075 716.747, 324.891 "
fill = "none" stroke = "black"/>
</g>
<g>
<polygon points = "0.950, 814.668 62.334, 865.792 61.564, 868.676 0.000, 897.518 0.000, 814.666 "
fill = "none" stroke = "black"/>
</g>
<g>
<polygon points = "646.317, 265.975 673.640, 307.204 674.180, 341.439 671.568, 344.182 645.003, 316.159 631.842, 295.239 "
fill = "none" stroke = "black"/>
</g>
<g>
<polygon points = "320.523, 208.544 290.419, 184.294 280.259, 154.679 282.106, 147.849 299.832, 126.200 352.318, 105.307 364.831, 130.910 362.832, 144.565 336.054, 207.362 335.582, 207.783 "
fill = "none" stroke = "black"/>
</g>
<g>
<polygon points = "105.887, 42.334 113.595, 64.202 98.645, 90.405 68.442, 58.000 66.921, 52.334 "
fill = "none" stroke = "black"/>
</g>
<g>
<polygon points = "125.078, 801.005 143.232, 772.784 156.884, 775.295 168.909, 793.955 167.495, 818.271 152.472, 854.647 150.412, 853.636 124.544, 821.750 "
fill = "none" stroke = "black"/>
</g>
<g>
<polygon points = "445.058, 704.521 484.403, 695.871 491.766, 720.083 478.682, 756.611 411.910, 739.248 410.934, 734.943 "
fill = "none" stroke = "black"/>
</g>
<g>
<polygon points = "306.403, 20.327 237.966, 4.941 237.594, 4.380 235.734, 0.000 314.975, 0.000 "
fill = "none" stroke = "black"/>
</g>
<g>
<polygon points = "103.776, 698.366 101.011, 748.704 71.809, 756.776 37.989, 724.649 61.263, 696.724 "
fill = "none" stroke = "black"/>
</g>
<g>
<polygon points = "411.067, 762.729 427.138, 772.985 424.663, 815.029 405.293, 817.310 390.437, 801.264 384.831, 787.635 "
fill = "none" stroke = "black"/>
</g>
<g>
<polygon points = "174.323, 140.201 143.180, 158.491 130.404, 157.999 104.019, 142.100 96.111, 126.890 104.718, 112.911 118.642, 107.716 181.798, 128.497 "
fill = "none" stroke = "black"/>
</g>
<g>
<polygon points = "297.862, 495.668 283.489, 527.055 277.888, 530.004 245.108, 509.562 244.510, 505.092 252.346, 498.609 285.695, 480.451 "
fill = "none" stroke = "black"/>
</g>
<g>
<polygon points = "823.781, 316.293 826.095, 319.135 831.411, 326.754 813.820, 354.170 782.244, 344.362 785.995, 328.991 "
fill = "none" stroke = "black"/>
</g>
<g>
<polygon points = "895.020, 303.573 939.822, 302.720 923.443, 336.049 901.041, 328.857 "
fill = "none" stroke = "black"/>
</g>
<g>
<polygon points = "947.541, 282.569 945.669, 276.918 947.685, 271.932 1000.000, 232.691 1000.000, 296.182 "
fill = "none" stroke = "black"/>
</g>
<g>
<polygon points = "202.274, 296.204 205.149, 300.565 217.888, 374.013 216.959, 392.707 207.511, 410.284 183.846, 378.676 183.860, 378.536 "
fill = "none" stroke = "black"/>
</g>
<g>
<polygon points = "217.888, 374.013 240.520, 366.642 248.175, 376.718 216.959, 392.707 "
fill = "none" stroke = "black"/>
</g>
<g>
<polygon points = "708.412, 973.169 740.283, 983.676 744.938, 1000.000 687.327, 1000.000 "
fill = "none" stroke = "black"/>
</g>
<g>
<polygon points = "963.497, 121.241 932.578, 96.433 938.151, 42.828 942.944, 39.857 968.999, 57.765 "
fill = "none" stroke = "black"/>
</g>
<g>
<polygon points = "957.710, 962.519 941.139, 1000.000 923.331, 1000.000 944.447, 949.843 "
fill = "none" stroke = "black"/>
</g>
<g>
<polygon points = "254.182, 221.092 270.173, 277.452 200.387, 290.942 188.659, 283.572 189.293, 263.093 208.522, 237.862 "
fill = "none" stroke = "black"/>
</g>
<g>
<polygon points = "911.812, 493.783 912.150, 488.743 918.922, 481.368 963.316, 471.620 982.571, 480.316 955.334, 514.866 "
fill = "none" stroke = "black"/>
</g>
<g>
<polygon points = "975.586, 752.159 958.002, 696.105 985.669, 667.899 1000.000, 667.602 1000.000, 760.540 "
fill = "none" stroke = "black"/>
</g>
<g>
<polygon points = "622.167, 451.218 649.136, 480.553 647.645, 488.720 610.173, 527.491 596.192, 521.607 586.332, 505.320 573.227, 460.378 615.753, 450.663 "
fill = "none" stroke = "black"/>
</g>
<g>
<polygon points = "778.966, 55.403 796.118, 40.539 801.928, 40.057 826.338, 68.135 773.595, 80.941 773.590, 80.918 "
fill = "none" stroke = "black"/>
</g>
<g>
<polygon points = "775.273, 803.936 841.708, 803.102 842.300, 803.885 772.381, 839.639 "
fill = "none" stroke = "black"/>
</g>
<g>
<polygon points = "889.046, 74.378 873.795, 62.243 851.212, 24.650 858.206, 9.720 930.832, 45.968 "
fill = "none" stroke = "black"/>
</g>
<g>
<polygon points = "575.694, 820.565 572.920, 826.024 510.964, 800.386 542.760, 771.758 553.420, 770.683 "
fill = "none" stroke = "black"/>
</g>
<g>
<polygon points = "105.411, 860.979 118.717, 882.378 116.493, 902.629 102.019, 891.854 99.696, 859.102 "
fill = "none" stroke = "black"/>
</g>
<g>
<polygon points = "410.934, 734.943 381.099, 718.511 411.058, 677.757 445.058, 704.521 "
fill = "none" stroke = "black"/>
</g>
<g>
<polygon points = "355.585, 424.443 377.298, 430.486 391.068, 451.321 365.391, 463.388 "
fill = "none" stroke = "black"/>
</g>
<g>
<polygon points = "40.830, 966.937 67.352, 938.404 76.602, 933.042 117.269, 953.934 130.778, 985.034 63.126, 978.970 "
fill = "none" stroke = "black"/>
</g>
<g>
<polygon points = "791.282, 764.707 795.387, 768.530 764.538, 799.516 758.523, 798.189 780.737, 766.693 "
fill = "none" stroke = "black"/>
</g>
<g>
<polygon points = "367.932, 538.211 388.326, 561.732 387.344, 566.503 377.210, 576.177 337.773, 581.372 330.346, 577.883 354.637, 531.180 "
fill = "none" stroke = "black"/>
</g>
<g>
<polygon points = "968.999, 57.765 942.944, 39.857 942.744, 0.000 1000.000, 0.000 1000.000, 56.558 "
fill = "none" stroke = "black"/>
</g>
<g>
<polygon points = "40.830, 966.937 63.126, 978.970 37.969, 1000.000 0.000, 1000.000 0.000, 980.461 "
fill = "none" stroke = "black"/>
</g>
<g>
<polygon points = "556.873, 25.167 526.853, 44.317 518.191, 47.938 495.679, 24.312 493.953, 0.000 553.191, 0.000 "
fill = "none" stroke = "black"/>
</g>
<g>
<polygon points = "21.540, 913.724 70.700, 922.729 76.602, 933.042 67.352, 938.404 0.000, 941.535 0.000, 911.711 "
fill = "none" stroke = "black"/>
</g>
<g>
<polygon points = "355.585, 424.443 365.391, 463.388 349.116, 479.648 302.766, 432.009 305.808, 405.397 323.614, 397.403 "
fill = "none" stroke = "black"/>
</g>
<g>
<polygon points = "677.455, 503.111 702.890, 493.496 728.916, 531.772 691.193, 552.975 680.534, 547.546 673.266, 510.148 "
fill = "none" stroke = "black"/>
</g>
<g>
<polygon points = "876.923, 993.464 937.331, 939.899 944.447, 949.843 923.331, 1000.000 876.873, 1000.000 "
fill = "none" stroke = "black"/>
</g>
<g>
<polygon points = "56.644, 505.934 66.001, 503.062 94.468, 521.160 76.696, 560.614 59.254, 529.695 "
fill = "none" stroke = "black"/>
</g>
<g>
<polygon points = "201.025, 133.376 241.673, 114.820 282.106, 147.849 280.259, 154.679 255.865, 159.300 215.594, 150.194 "
fill = "none" stroke = "black"/>
</g>
<g>
<polygon points = "93.788, 190.713 49.253, 208.485 42.159, 178.779 89.240, 178.536 "
fill = "none" stroke = "black"/>
</g>
<g>
<polygon points = "525.565, 631.277 506.453, 665.181 493.945, 671.783 475.370, 631.452 476.834, 589.237 514.498, 589.389 "
fill = "none" stroke = "black"/>
</g>
<g>
<polygon points = "874.766, 300.650 875.671, 298.129 879.987, 290.836 895.020, 303.573 901.041, 328.857 864.599, 342.538 "
fill = "none" stroke = "black"/>
</g>
<g>
<polygon points = "509.605, 859.399 497.316, 886.561 456.459, 881.864 469.900, 830.879 471.473, 826.188 484.630, 813.080 513.501, 839.262 "
fill = "none" stroke = "black"/>
</g>
<g>
<polygon points = "240.520, 366.642 224.623, 320.420 279.225, 356.763 286.092, 384.291 248.175, 376.718 "
fill = "none" stroke = "black"/>
</g>
<g>
<polygon points = "464.765, 470.491 466.995, 474.374 446.472, 515.403 438.373, 514.352 434.238, 511.122 432.910, 468.764 441.688, 457.368 "
fill = "none" stroke = "black"/>
</g>
<g>
<polygon points = "711.049, 30.319 703.666, 43.753 682.130, 48.263 649.591, 0.000 707.081, 0.000 "
fill = "none" stroke = "black"/>
</g>
<g>
<polygon points = "975.947, 1000.000 973.461, 968.645 1000.000, 958.760 1000.000, 1000.000 "
fill = "none" stroke = "black"/>
</g>
<g>
<polygon points = "110.148, 690.665 110.149, 690.823 103.776, 698.366 61.263, 696.724 56.299, 667.510 70.944, 656.719 "
fill = "none" stroke = "black"/>
</g>
<g>
<polygon points = "716.746, 797.003 715.912, 797.342 672.815, 775.038 672.858, 737.592 676.067, 737.905 "
fill = "none" stroke = "black"/>
</g>
<g>
<polygon points = "823.781, 316.293 824.109, 306.586 875.671, 298.129 874.766, 300.650 826.095, 319.135 "
fill = "none" stroke = "black"/>
</g>
<g>
<polygon points = "302.207, 310.296 279.225, 356.763 224.623, 320.420 205.149, 300.565 202.274, 296.204 200.387, 290.942 270.173, 277.452 273.808, 277.102 286.969, 277.735 296.076, 285.761 "
fill = "none" stroke = "black"/>
</g>
<g>
<polygon points = "982.571, 480.316 963.316, 471.620 941.447, 452.984 950.399, 421.419 1000.000, 420.720 1000.000, 473.912 "
fill = "none" stroke = "black"/>
</g>
<g>
<polygon points = "484.366, 319.660 498.319, 319.467 540.534, 340.232 551.213, 352.886 494.877, 366.051 475.887, 363.794 468.336, 353.125 "
fill = "none" stroke = "black"/>
</g>
<g>
<polygon points = "718.148, 317.490 726.421, 304.369 740.825, 307.112 748.055, 320.027 717.867, 323.075 "
fill = "none" stroke = "black"/>
</g>
<g>
<polygon points = "101.005, 394.262 49.288, 367.979 46.484, 366.094 48.619, 344.370 102.145, 298.582 113.461, 299.644 124.769, 305.372 120.537, 328.685 106.658, 389.563 "
fill = "none" stroke = "black"/>
</g>
<g>
<polygon points = "132.181, 579.044 229.425, 602.242 204.561, 622.849 176.675, 637.180 125.587, 607.086 "
fill = "none" stroke = "black"/>
</g>
<g>
<polygon points = "353.824, 495.983 404.542, 493.525 418.600, 505.598 367.932, 538.211 354.637, 531.180 352.818, 528.151 "
fill = "none" stroke = "black"/>
</g>
<g>
<polygon points = "76.696, 560.614 94.468, 521.160 127.204, 526.354 139.595, 540.293 130.790, 576.132 79.032, 566.690 "
fill = "none" stroke = "black"/>
</g>
<g>
<polygon points = "692.623, 844.914 689.869, 845.826 656.206, 822.396 685.900, 806.521 702.298, 807.510 "
fill = "none" stroke = "black"/>
</g>
<g>
<polygon points = "613.514, 628.087 611.977, 607.459 687.148, 625.323 650.986, 638.326 629.512, 636.986 "
fill = "none" stroke = "black"/>
</g>
<g>
<polygon points = "205.939, 898.531 187.186, 934.906 163.173, 887.504 169.217, 873.391 173.561, 872.865 "
fill = "none" stroke = "black"/>
</g>
<g>
<polygon points = "647.251, 396.133 647.443, 394.866 669.473, 358.009 698.612, 387.989 694.468, 402.118 683.943, 406.098 "
fill = "none" stroke = "black"/>
</g>
<g>
<polygon points = "664.737, 889.345 643.951, 874.226 643.367, 870.284 683.126, 854.490 689.430, 888.295 687.553, 891.238 "
fill = "none" stroke = "black"/>
</g>
<g>
<polygon points = "649.148, 259.957 646.267, 265.257 597.794, 267.347 619.966, 211.596 "
fill = "none" stroke = "black"/>
</g>
<g>
<polygon points = "659.655, 950.605 629.925, 966.230 619.124, 919.320 643.951, 874.226 664.737, 889.345 "
fill = "none" stroke = "black"/>
</g>
<g>
<polygon points = "349.116, 479.648 349.656, 487.767 305.348, 498.418 297.862, 495.668 285.695, 480.451 294.003, 442.777 302.766, 432.009 "
fill = "none" stroke = "black"/>
</g>
<g>
<polygon points = "32.821, 480.192 41.598, 497.979 39.111, 500.193 0.000, 513.420 0.000, 477.009 "
fill = "none" stroke = "black"/>
</g>
<g>
<polygon points = "18.137, 806.956 34.087, 795.462 63.534, 779.035 81.957, 806.228 78.203, 829.419 "
fill = "none" stroke = "black"/>
</g>
<g>
<polygon points = "574.981, 137.559 594.096, 187.414 559.500, 210.226 556.416, 206.725 574.137, 136.816 "
fill = "none" stroke = "black"/>
</g>
<g>
<polygon points = "118.108, 666.711 110.148, 690.665 70.944, 656.719 81.574, 633.544 117.829, 626.332 119.615, 630.877 "
fill = "none" stroke = "black"/>
</g>
<g>
<polygon points = "451.679, 270.336 451.949, 269.775 496.000, 261.544 497.594, 264.746 498.319, 319.467 484.366, 319.660 450.915, 305.107 "
fill = "none" stroke = "black"/>
</g>
<g>
<polygon points = "842.360, 168.185 818.436, 174.737 773.191, 167.690 783.688, 114.646 827.337, 120.411 856.653, 136.949 "
fill = "none" stroke = "black"/>
</g>
<g>
<polygon points = "93.788, 190.713 89.240, 178.536 104.019, 142.100 130.404, 157.999 121.447, 191.936 98.300, 196.847 "
fill = "none" stroke = "black"/>
</g>
<g>
<polygon points = "782.984, 285.809 779.487, 321.024 757.911, 315.146 752.836, 287.840 "
fill = "none" stroke = "black"/>
</g>
<g>
<polygon points = "735.413, 748.679 774.014, 765.836 734.259, 798.837 729.817, 795.327 "
fill = "none" stroke = "black"/>
</g>
<g>
<polygon points = "205.939, 898.531 173.561, 872.865 208.360, 846.748 212.468, 844.789 240.264, 880.702 221.558, 900.420 "
fill = "none" stroke = "black"/>
</g>
<g>
<polygon points = "219.496, 498.752 192.093, 473.410 222.293, 451.781 236.459, 498.494 "
fill = "none" stroke = "black"/>
</g>
<g>
<polygon points = "871.212, 622.387 863.518, 596.546 869.886, 577.123 887.758, 580.299 906.818, 589.251 923.037, 620.773 913.634, 623.272 "
fill = "none" stroke = "black"/>
</g>
<g>
<polygon points = "495.679, 24.312 460.615, 38.396 434.203, 14.439 437.296, 0.000 493.953, 0.000 "
fill = "none" stroke = "black"/>
</g>
<g>
<polygon points = "654.233, 420.286 675.242, 416.271 687.767, 430.619 687.421, 435.903 670.459, 448.316 654.785, 436.525 "
fill = "none" stroke = "black"/>
</g>
<g>
<polygon points = "709.322, 643.955 735.152, 647.135 772.586, 677.931 773.609, 680.005 773.931, 687.846 731.634, 728.872 706.801, 650.966 "
fill = "none" stroke = "black"/>
</g>
<g>
<polygon points = "393.968, 275.800 378.907, 260.857 436.657, 223.287 451.949, 269.775 451.679, 270.336 "
fill = "none" stroke = "black"/>
</g>
<g>
<polygon points = "675.242, 416.271 683.943, 406.098 694.468, 402.118 696.978, 410.565 687.767, 430.619 "
fill = "none" stroke = "black"/>
</g>
<g>
<polygon points = "963.568, 121.653 963.497, 121.241 968.999, 57.765 1000.000, 56.558 1000.000, 164.713 "
fill = "none" stroke = "black"/>
</g>
<g>
<polygon points = "654.785, 436.525 670.459, 448.316 673.092, 461.587 649.136, 480.553 622.167, 451.218 "
fill = "none" stroke = "black"/>
</g>
<g>
<polygon points = "189.370, 754.304 156.884, 775.295 143.232, 772.784 136.342, 764.802 152.010, 703.977 159.809, 700.381 192.951, 733.146 195.609, 737.931 "
fill = "none" stroke = "black"/>
</g>
<g>
<polygon points = "932.836, 673.134 908.414, 667.538 907.017, 652.345 934.169, 629.332 938.330, 630.653 942.549, 642.561 936.409, 670.660 "
fill = "none" stroke = "black"/>
</g>
<g>
<polygon points = "724.001, 444.187 731.614, 437.541 740.203, 440.562 759.074, 472.118 753.168, 479.979 711.540, 473.024 "
fill = "none" stroke = "black"/>
</g>
<g>
<polygon points = "826.338, 68.135 828.937, 68.603 835.020, 78.055 827.337, 120.411 783.688, 114.646 774.670, 104.830 774.445, 104.367 773.595, 80.941 "
fill = "none" stroke = "black"/>
</g>
<g>
<polygon points = "802.051, 965.580 803.955, 950.617 823.792, 948.077 866.062, 967.581 876.923, 993.464 876.873, 1000.000 819.632, 1000.000 "
fill = "none" stroke = "black"/>
</g>
<g>
<polygon points = "448.543, 434.294 449.533, 437.991 441.151, 453.227 408.469, 440.340 411.413, 431.650 "
fill = "none" stroke = "black"/>
</g>
<g>
<polygon points = "594.442, 749.112 595.744, 774.463 589.621, 811.511 575.694, 820.565 553.420, 770.683 580.314, 748.031 "
fill = "none" stroke = "black"/>
</g>
<g>
<polygon points = "377.210, 576.177 364.499, 614.534 337.773, 581.372 "
fill = "none" stroke = "black"/>
</g>
<g>
<polygon points = "787.580, 735.371 732.273, 732.101 731.331, 730.811 731.634, 728.872 773.931, 687.846 802.150, 717.675 "
fill = "none" stroke = "black"/>
</g>
<g>
<polygon points = "393.968, 275.800 451.679, 270.336 450.915, 305.107 431.744, 321.255 409.175, 323.443 403.338, 316.109 "
fill = "none" stroke = "black"/>
</g>
<g>
<polygon points = "67.352, 938.404 40.830, 966.937 0.000, 980.461 0.000, 941.535 "
fill = "none" stroke = "black"/>
</g>
<g>
<polygon points = "353.569, 855.769 393.039, 863.744 413.608, 888.054 372.818, 927.147 371.515, 927.882 367.391, 929.908 "
fill = "none" stroke = "black"/>
</g>
<g>
<polygon points = "487.743, 435.315 471.704, 405.302 475.691, 403.337 515.791, 396.601 504.562, 436.763 496.167, 439.629 "
fill = "none" stroke = "black"/>
</g>
<g>
<polygon points = "21.343, 723.321 34.087, 795.462 18.137, 806.956 0.950, 814.668 0.000, 814.666 0.000, 719.765 "
fill = "none" stroke = "black"/>
</g>
<g>
<polygon points = "234.208, 782.132 234.257, 782.372 234.425, 789.743 223.620, 817.901 168.909, 793.955 156.884, 775.295 189.370, 754.304 "
fill = "none" stroke = "black"/>
</g>
<g>
<polygon points = "659.655, 950.605 664.737, 889.345 687.553, 891.238 700.097, 925.400 676.259, 946.175 "
fill = "none" stroke = "black"/>
</g>
<g>
<polygon points = "15.841, 600.388 47.978, 664.620 0.000, 682.685 0.000, 597.709 "
fill = "none" stroke = "black"/>
</g>
<g>
<polygon points = "774.014, 765.836 780.737, 766.693 758.523, 798.189 734.584, 799.155 734.259, 798.837 "
fill = "none" stroke = "black"/>
</g>
<g>
<polygon points = "671.568, 344.182 669.763, 347.059 589.420, 332.292 601.086, 322.866 645.003, 316.159 "
fill = "none" stroke = "black"/>
</g>
<g>
<polygon points = "23.522, 83.582 51.918, 106.736 58.571, 126.992 24.452, 155.708 0.000, 154.710 0.000, 86.040 "
fill = "none" stroke = "black"/>
</g>
<g>
<polygon points = "56.644, 505.934 41.598, 497.979 32.821, 480.192 46.047, 434.262 90.468, 417.371 108.832, 464.469 106.309, 471.834 66.001, 503.062 "
fill = "none" stroke = "black"/>
</g>
<g>
<polygon points = "764.353, 435.817 761.570, 435.346 766.625, 409.482 787.451, 413.411 "
fill = "none" stroke = "black"/>
</g>
<g>
<polygon points = "224.623, 320.420 240.520, 366.642 217.888, 374.013 205.149, 300.565 "
fill = "none" stroke = "black"/>
</g>
<g>
<polygon points = "647.443, 394.866 611.150, 371.259 669.299, 355.862 669.473, 358.009 "
fill = "none" stroke = "black"/>
</g>
<g>
<polygon points = "740.283, 983.676 708.412, 973.169 682.836, 951.320 745.220, 959.870 "
fill = "none" stroke = "black"/>
</g>
<g>
<polygon points = "795.387, 768.530 791.282, 764.707 787.580, 735.371 802.150, 717.675 840.254, 713.235 842.078, 715.935 840.825, 801.045 "
fill = "none" stroke = "black"/>
</g>
<g>
<polygon points = "596.192, 521.607 556.044, 562.085 526.241, 564.795 512.830, 544.614 527.705, 520.950 586.332, 505.320 "
fill = "none" stroke = "black"/>
</g>
<g>
<polygon points = "391.941, 400.055 381.665, 393.507 399.127, 348.229 422.642, 377.572 407.725, 403.571 "
fill = "none" stroke = "black"/>
</g>
<g>
<polygon points = "932.578, 96.433 963.497, 121.241 963.568, 121.653 896.998, 128.576 880.527, 125.701 887.441, 100.750 "
fill = "none" stroke = "black"/>
</g>
<g>
<polygon points = "432.334, 158.144 437.451, 98.542 451.240, 94.570 459.902, 97.107 465.536, 102.106 494.659, 173.421 490.998, 178.924 489.934, 179.825 449.054, 184.469 "
fill = "none" stroke = "black"/>
</g>
<g>
<polygon points = "491.766, 720.083 509.822, 728.717 542.760, 771.758 510.964, 800.386 485.758, 809.428 475.954, 783.711 478.682, 756.611 "
fill = "none" stroke = "black"/>
</g>
<g>
<polygon points = "294.781, 978.494 340.664, 953.321 324.468, 1000.000 294.979, 1000.000 "
fill = "none" stroke = "black"/>
</g>
<g>
<polygon points = "816.511, 226.843 811.982, 229.991 790.345, 229.286 760.870, 207.247 811.355, 188.554 "
fill = "none" stroke = "black"/>
</g>
<g>
<polygon points = "748.170, 855.165 734.584, 799.155 758.523, 798.189 764.538, 799.516 775.273, 803.936 772.381, 839.639 764.440, 847.212 750.042, 855.578 "
fill = "none" stroke = "black"/>
</g>
<g>
<polygon points = "784.949, 447.432 809.658, 446.548 817.766, 458.761 813.340, 469.699 766.432, 468.988 "
fill = "none" stroke = "black"/>
</g>
<g>
<polygon points = "752.556, 24.592 711.049, 30.319 707.081, 0.000 761.143, 0.000 "
fill = "none" stroke = "black"/>
</g>
<g>
<polygon points = "907.632, 405.139 902.156, 433.643 898.539, 437.298 860.328, 458.236 853.756, 417.218 865.076, 378.427 865.405, 378.207 893.657, 387.833 "
fill = "none" stroke = "black"/>
</g>
<g>
<polygon points = "495.679, 24.312 518.191, 47.938 513.748, 66.972 511.878, 68.356 505.890, 69.509 461.794, 60.000 458.559, 48.563 460.615, 38.396 "
fill = "none" stroke = "black"/>
</g>
<g>
<polygon points = "161.823, 673.470 159.663, 653.831 167.659, 648.142 187.151, 661.676 187.129, 664.332 166.373, 682.730 "
fill = "none" stroke = "black"/>
</g>
<g>
<polygon points = "740.825, 307.112 748.125, 285.438 749.042, 285.268 752.836, 287.840 757.911, 315.146 750.000, 320.187 748.055, 320.027 "
fill = "none" stroke = "black"/>
</g>
<g>
<polygon points = "200.387, 290.942 202.274, 296.204 183.860, 378.536 120.537, 328.685 124.769, 305.372 159.089, 292.382 188.659, 283.572 "
fill = "none" stroke = "black"/>
</g>
<g>
<polygon points = "613.514, 628.087 593.011, 658.763 567.232, 634.603 590.999, 601.639 610.121, 602.437 611.977, 607.459 "
fill = "none" stroke = "black"/>
</g>
<g>
<polygon points = "898.539, 437.298 907.312, 482.465 859.935, 460.245 859.584, 459.320 860.328, 458.236 "
fill = "none" stroke = "black"/>
</g>
<g>
<polygon points = "649.148, 259.957 619.966, 211.596 618.773, 209.203 633.714, 196.029 636.041, 194.769 700.794, 184.504 717.403, 205.582 697.939, 237.838 "
fill = "none" stroke = "black"/>
</g>
<g>
<polygon points = "34.343, 68.184 23.522, 83.582 0.000, 86.040 0.000, 33.677 "
fill = "none" stroke = "black"/>
</g>
<g>
<polygon points = "645.737, 400.303 647.251, 396.133 683.943, 406.098 675.242, 416.271 654.233, 420.286 "
fill = "none" stroke = "black"/>
</g>
<g>
<polygon points = "342.931, 359.401 327.329, 331.580 357.031, 303.694 363.106, 310.720 357.364, 349.870 "
fill = "none" stroke = "black"/>
</g>
<g>
<polygon points = "599.855, 678.324 562.349, 699.444 522.058, 671.119 593.011, 659.030 "
fill = "none" stroke = "black"/>
</g>
<g>
<polygon points = "752.899, 393.390 766.625, 409.482 761.570, 435.346 740.203, 440.562 731.614, 437.541 731.159, 434.574 735.222, 412.225 745.828, 398.838 "
fill = "none" stroke = "black"/>
</g>
<g>
<polygon points = "78.203, 829.419 81.957, 806.228 125.078, 801.005 124.544, 821.750 85.830, 850.483 82.276, 850.193 "
fill = "none" stroke = "black"/>
</g>
<g>
<polygon points = "646.267, 265.257 646.317, 265.975 631.842, 295.239 601.086, 322.866 589.420, 332.292 582.272, 333.952 586.666, 269.012 597.794, 267.347 "
fill = "none" stroke = "black"/>
</g>
<g>
<polygon points = "740.283, 983.676 745.220, 959.870 751.016, 937.113 779.157, 927.722 803.955, 950.617 802.051, 965.580 764.432, 1000.000 744.938, 1000.000 "
fill = "none" stroke = "black"/>
</g>
<g>
<polygon points = "269.045, 201.334 266.174, 208.129 254.182, 221.092 208.522, 237.862 225.574, 202.545 "
fill = "none" stroke = "black"/>
</g>
<g>
<polygon points = "236.087, 526.531 227.083, 586.732 181.874, 525.452 "
fill = "none" stroke = "black"/>
</g>
<g>
<polygon points = "18.137, 806.956 78.203, 829.419 82.276, 850.193 62.334, 865.792 0.950, 814.668 "
fill = "none" stroke = "black"/>
</g>
<g>
<polygon points = "397.196, 559.043 418.844, 541.987 445.411, 586.142 444.979, 586.502 "
fill = "none" stroke = "black"/>
</g>
<g>
<polygon points = "634.923, 810.664 589.621, 811.511 595.744, 774.463 "
fill = "none" stroke = "black"/>
</g>
<g>
<polygon points = "163.173, 887.504 125.708, 925.014 116.493, 902.629 118.717, 882.378 157.759, 862.375 169.217, 873.391 "
fill = "none" stroke = "black"/>
</g>
<g>
<polygon points = "411.413, 431.650 408.469, 440.340 398.364, 451.912 391.068, 451.321 377.298, 430.486 391.941, 400.055 407.725, 403.571 411.983, 410.245 "
fill = "none" stroke = "black"/>
</g>
<g>
<polygon points = "243.933, 879.908 241.715, 880.739 240.264, 880.702 212.468, 844.789 224.286, 821.270 258.787, 833.070 "
fill = "none" stroke = "black"/>
</g>
<g>
<polygon points = "634.843, 146.667 649.367, 123.472 654.658, 123.415 700.306, 167.294 700.004, 180.774 635.730, 147.862 "
fill = "none" stroke = "black"/>
</g>
<g>
<polygon points = "788.054, 281.349 782.984, 285.809 752.836, 287.840 749.042, 285.268 751.797, 266.440 783.523, 258.949 "
fill = "none" stroke = "black"/>
</g>
<g>
<polygon points = "775.273, 803.936 764.538, 799.516 795.387, 768.530 840.825, 801.045 841.708, 803.102 "
fill = "none" stroke = "black"/>
</g>
<g>
<polygon points = "475.887, 363.794 494.877, 366.051 475.691, 403.337 471.704, 405.302 462.975, 402.756 458.467, 390.339 "
fill = "none" stroke = "black"/>
</g>
<g>
<polygon points = "911.812, 493.783 955.334, 514.866 951.563, 543.902 918.505, 538.542 910.895, 533.320 897.928, 506.829 "
fill = "none" stroke = "black"/>
</g>
<g>
<polygon points = "245.108, 509.562 236.087, 526.531 181.874, 525.452 170.336, 517.291 170.982, 515.193 219.496, 498.752 236.459, 498.494 244.510, 505.092 "
fill = "none" stroke = "black"/>
</g>
<g>
<polygon points = "349.656, 487.767 353.824, 495.983 352.818, 528.151 316.732, 530.658 315.241, 529.608 305.348, 498.418 "
fill = "none" stroke = "black"/>
</g>
<g>
<polygon points = "898.539, 437.298 902.156, 433.643 926.620, 452.285 918.922, 481.368 912.150, 488.743 907.312, 482.465 "
fill = "none" stroke = "black"/>
</g>
<g>
<polygon points = "449.533, 437.991 467.431, 444.690 464.765, 470.491 441.688, 457.368 441.151, 453.227 "
fill = "none" stroke = "black"/>
</g>
<g>
<polygon points = "234.257, 782.372 234.208, 782.132 253.389, 746.231 262.480, 745.111 308.246, 758.045 268.467, 779.112 "
fill = "none" stroke = "black"/>
</g>
<g>
<polygon points = "237.594, 4.380 237.966, 4.941 249.330, 25.340 254.171, 72.063 240.002, 83.942 201.570, 82.697 "
fill = "none" stroke = "black"/>
</g>
<g>
<polygon points = "973.461, 968.645 957.710, 962.519 944.447, 949.843 937.331, 939.899 935.756, 914.328 947.377, 911.106 992.592, 946.351 1000.000, 957.131 1000.000, 958.760 "
fill = "none" stroke = "black"/>
</g>
<g>
<polygon points = "241.715, 880.739 243.933, 879.908 305.985, 873.690 306.570, 873.979 308.773, 914.777 298.047, 921.992 260.015, 917.702 "
fill = "none" stroke = "black"/>
</g>
<g>
<polygon points = "740.203, 440.562 761.570, 435.346 764.353, 435.817 784.949, 447.432 766.432, 468.988 762.708, 472.075 759.074, 472.118 "
fill = "none" stroke = "black"/>
</g>
<g>
<polygon points = "237.594, 4.380 201.570, 82.697 186.427, 87.579 165.432, 64.623 165.009, 57.451 201.831, 0.000 235.734, 0.000 "
fill = "none" stroke = "black"/>
</g>
<g>
<polygon points = "700.306, 167.294 654.658, 123.415 680.553, 101.874 700.541, 110.260 702.698, 159.566 "
fill = "none" stroke = "black"/>
</g>
<g>
<polygon points = "509.605, 859.399 519.707, 889.496 511.923, 890.880 497.316, 886.561 "
fill = "none" stroke = "black"/>
</g>
<g>
<polygon points = "784.949, 447.432 764.353, 435.817 787.451, 413.411 804.993, 410.175 809.715, 426.903 809.658, 446.548 "
fill = "none" stroke = "black"/>
</g>
<g>
<polygon points = "281.531, 597.221 277.888, 530.004 283.489, 527.055 315.241, 529.608 316.732, 530.658 291.419, 590.718 "
fill = "none" stroke = "black"/>
</g>
<g>
<polygon points = "214.115, 729.613 202.620, 688.865 218.783, 678.226 244.229, 670.357 231.472, 724.704 "
fill = "none" stroke = "black"/>
</g>
<g>
<polygon points = "948.870, 827.302 884.571, 882.112 862.606, 866.074 860.293, 863.420 860.278, 863.351 855.095, 814.468 896.190, 790.869 "
fill = "none" stroke = "black"/>
</g>
<g>
<polygon points = "234.208, 782.132 189.370, 754.304 195.609, 737.931 214.115, 729.613 231.472, 724.704 253.389, 746.231 "
fill = "none" stroke = "black"/>
</g>
<g>
<polygon points = "347.894, 941.532 308.773, 914.777 306.570, 873.979 312.070, 869.826 346.314, 852.808 346.536, 852.842 353.569, 855.769 367.391, 929.908 351.862, 941.775 "
fill = "none" stroke = "black"/>
</g>
<g>
<polygon points = "594.442, 749.112 580.314, 748.031 562.847, 725.104 562.349, 699.444 599.855, 678.324 634.595, 702.591 641.485, 711.214 641.827, 718.733 623.934, 738.009 "
fill = "none" stroke = "black"/>
</g>
<g>
<polygon points = "932.578, 96.433 887.441, 100.750 889.046, 74.378 930.832, 45.968 938.151, 42.828 "
fill = "none" stroke = "black"/>
</g>
<g>
<polygon points = "485.758, 809.428 484.630, 813.080 471.473, 826.188 424.663, 815.029 427.138, 772.985 475.954, 783.711 "
fill = "none" stroke = "black"/>
</g>
<g>
<polygon points = "353.662, 101.500 353.181, 100.336 342.429, 53.239 353.991, 24.196 386.683, 33.465 405.548, 76.637 404.699, 79.945 "
fill = "none" stroke = "black"/>
</g>
<g>
<polygon points = "634.923, 810.664 636.221, 810.809 641.001, 820.807 632.412, 855.058 593.058, 858.582 572.082, 838.814 572.920, 826.024 575.694, 820.565 589.621, 811.511 "
fill = "none" stroke = "black"/>
</g>
<g>
<polygon points = "431.803, 978.792 441.787, 965.204 513.718, 1000.000 417.768, 1000.000 "
fill = "none" stroke = "black"/>
</g>
<g>
<polygon points = "752.556, 24.592 778.966, 55.403 773.590, 80.918 710.546, 53.585 703.666, 43.753 711.049, 30.319 "
fill = "none" stroke = "black"/>
</g>
<g>
<polygon points = "791.282, 764.707 780.737, 766.693 774.014, 765.836 735.413, 748.679 732.273, 732.101 787.580, 735.371 "
fill = "none" stroke = "black"/>
</g>
<g>
<polygon points = "645.737, 400.303 654.233, 420.286 654.785, 436.525 622.167, 451.218 615.753, 450.663 629.269, 406.505 "
fill = "none" stroke = "black"/>
</g>
<g>
<polygon points = "842.360, 168.185 846.787, 212.395 816.511, 226.843 811.355, 188.554 818.436, 174.737 "
fill = "none" stroke = "black"/>
</g>
<g>
<polygon points = "636.221, 810.809 634.923, 810.664 595.744, 774.463 594.442, 749.112 623.934, 738.009 639.303, 800.576 "
fill = "none" stroke = "black"/>
</g>
<g>
<polygon points = "985.669, 667.899 942.549, 642.561 938.330, 630.653 953.672, 618.862 1000.000, 607.400 1000.000, 667.602 "
fill = "none" stroke = "black"/>
</g>
<g>
<polygon points = "108.832, 464.469 90.468, 417.371 101.005, 394.262 106.658, 389.563 114.542, 391.989 172.566, 427.717 160.527, 469.712 "
fill = "none" stroke = "black"/>
</g>
<g>
<polygon points = "464.765, 470.491 467.431, 444.690 487.743, 435.315 496.167, 439.629 492.742, 470.622 466.995, 474.374 "
fill = "none" stroke = "black"/>
</g>
<g>
<polygon points = "192.951, 733.146 159.809, 700.381 166.737, 688.711 198.614, 690.528 "
fill = "none" stroke = "black"/>
</g>
<g>
<polygon points = "814.077, 601.154 817.968, 562.126 846.136, 561.334 862.559, 566.799 869.886, 577.123 863.518, 596.546 827.608, 620.907 "
fill = "none" stroke = "black"/>
</g>
<g>
<polygon points = "846.336, 26.453 843.917, 28.021 801.928, 40.057 796.118, 40.539 792.252, 0.000 800.234, 0.000 "
fill = "none" stroke = "black"/>
</g>
<g>
<polygon points = "51.918, 106.736 68.442, 58.000 98.645, 90.405 104.718, 112.911 96.111, 126.890 58.571, 126.992 "
fill = "none" stroke = "black"/>
</g>
<g>
<polygon points = "448.543, 434.294 411.413, 431.650 411.983, 410.245 451.997, 412.081 "
fill = "none" stroke = "black"/>
</g>
<g>
<polygon points = "328.677, 673.814 346.430, 689.325 302.145, 713.774 297.214, 703.884 "
fill = "none" stroke = "black"/>
</g>
<g>
<polygon points = "353.662, 101.500 352.318, 105.307 299.832, 126.200 270.272, 78.974 291.380, 66.693 353.181, 100.336 "
fill = "none" stroke = "black"/>
</g>
<g>
<polygon points = "825.756, 631.993 847.325, 670.158 845.340, 673.493 822.908, 671.145 792.313, 650.847 793.574, 635.186 "
fill = "none" stroke = "black"/>
</g>
<g>
<polygon points = "649.367, 123.472 634.843, 146.667 607.502, 146.096 574.981, 137.559 574.137, 136.816 568.868, 130.338 570.457, 122.480 591.385, 93.731 610.332, 73.488 "
fill = "none" stroke = "black"/>
</g>
<g>
<polygon points = "39.111, 500.193 0.000, 562.131 0.000, 513.420 "
fill = "none" stroke = "black"/>
</g>
<g>
<polygon points = "353.991, 24.196 342.429, 53.239 304.893, 41.137 306.403, 20.327 314.975, 0.000 351.826, 0.000 "
fill = "none" stroke = "black"/>
</g>
<g>
<polygon points = "201.025, 133.376 215.594, 150.194 210.916, 178.641 185.208, 183.812 174.323, 140.201 181.798, 128.497 184.146, 126.732 "
fill = "none" stroke = "black"/>
</g>
<g>
<polygon points = "887.758, 580.299 918.505, 538.542 951.563, 543.902 953.509, 548.280 949.297, 555.864 906.818, 589.251 "
fill = "none" stroke = "black"/>
</g>
<g>
<polygon points = "388.326, 561.732 397.196, 559.043 444.979, 586.502 434.755, 603.191 420.219, 614.765 413.626, 615.887 387.344, 566.503 "
fill = "none" stroke = "black"/>
</g>
<g>
<polygon points = "670.459, 448.316 687.421, 435.903 724.001, 444.187 711.540, 473.024 702.790, 483.602 673.092, 461.587 "
fill = "none" stroke = "black"/>
</g>
<g>
<polygon points = "619.124, 919.320 629.925, 966.230 627.835, 970.092 556.481, 945.819 549.331, 925.753 550.627, 915.537 598.212, 902.738 "
fill = "none" stroke = "black"/>
</g>
</svg>
